<svg id="Capa_1" enable-background="new 0 0 512 512" height="512" viewBox="0 0 512 512" width="512" xmlns="http://www.w3.org/2000/svg"><g><g><g><path d="m256.008 0h174.413c45.06 0 81.579 36.028 81.579 81.087v190.643l-58.533 33.09h-155.234l-42.225-33.09-68.221-118.424z" fill="#cee1e4"/></g><g><path d="m256.008 0h-174.413c-45.059 0-81.595 36.028-81.595 81.087v163.601l58.805 60.132h155.234l41.969-33.09z" fill="#f1f6f7"/></g></g><g><path d="m188.023 113.905c-18.229 0-34.521 8.269-45.347 21.256-39.374-21.779-88.449 8.492-87.484 53.102-22.727 5.624-45.21 19.554-55.192 56.425v27.04l43.561 20.049h99.745l22.104-20.049 16.938-10.93 34.147-44.579 3.396-24.272 2.394-31.915-20.766-41.191z" fill="#a4e786"/><g><path d="m308.518 126.23c-7.19-4.9-15.17-8.88-23.84-11.73l-28.68-9.43-16.066 42.026 16.066 37.364 9.18 15.742h22.638l9.181-5.952 14.138-12.09 7.83-40.851z" fill="#49a420"/><path d="m193.599 84.958c-12.575 38.34-5.154 79.782 26.292 106.989l9.585 10.894h18.894l7.628-18.381v-79.39z" fill="#70d940"/></g><g><path d="m434.633 178.746c-2.214-11.157-7.274-22.454-15.265-32.884-25.471-33.226-71.031-45.079-101.776-26.476-3.338 2.022-6.365 4.311-9.071 6.846-17.683 16.485-21.908 42.972-11.521 68.014 0 0-.001.004-.001.004v25.356l35.244 40.851 14.34 11.271 12.724 17.07h135.852l16.841-17.07c-8.815-36.232-37.946-78.477-77.367-92.982z" fill="#70d940"/></g><g><path d="m256.008 184.46-16.076 49.979 16.076 37.291 18.701 20.047h59.438l12.451-20.047c-1.775-48.067-42.536-87.698-90.59-87.27z" fill="#ff3939"/><path d="m255.998 184.46v87.27l-14.99 20.047h-63.149l-12.451-20.047c1.776-48.067 42.536-87.698 90.59-87.27z" fill="#ff5b5b"/></g></g><g><g><path d="m255.988 336.913 19.085-32.092h211.064l25.863 32.092c0 81.413-66.01 142.263-147.424 142.263h-8.716v32.824h-99.863l-28.938-69.08z" fill="#04303e"/><path d="m256.008 336.913-19.085-32.092h-211.064l-25.859 32.092c0 81.413 66.007 142.263 147.42 142.263h8.716v32.824h99.863z" fill="#09607d"/></g><g><path d="m512 336.913h-255.992l-19.085-32.093 19.085-33.092h255.992z" fill="#cee1e4"/><path d="m256.008 336.913h-256.008v-65.185h255.992z" fill="#f1f6f7"/></g></g></g></svg>