<svg id="Capa_1" enable-background="new 0 0 512.005 512.005" height="512" viewBox="0 0 512.005 512.005" width="512" xmlns="http://www.w3.org/2000/svg"><g><g><path d="m185.92 360.994-3.174 13.955-127.209 127.525c-6.35 6.35-14.67 9.53-23 9.53-8.32 0-16.657-3.18-23.006-9.53l62.18-93.427 88.19-56.943 14.956-3.195z" fill="#ff9000"/><path d="m152.493 325.901-15.433 3.363-127.53 127.22c-6.35 6.35-9.53 14.67-9.53 23 0 8.32 3.18 16.64 9.53 22.99l150.37-150.37 4.678-15.139z" fill="#ffb555"/></g><g><g><path d="m475.475 212.919-49.15 49.15 1.403-59.996-36.511-16.341-10.723 29.106-155.233 155.235-42.515 4.876-22.846-22.845 146.365-192.045 169.205-123.525c48.71 48.71 48.715 127.685.005 176.385z" fill="#dd78ef"/><path d="m360.975 196.719-178.23 178.23 65.35 65.35 178.23-178.23c18.05-18.05 18.05-47.3 0-65.35-18.039-18.04-47.299-18.04-65.35 0z" fill="#be4cd8"/></g><g><path d="m299.09 36.534-49.15 49.15 59.996-1.403 16.341 36.511-29.106 10.723-155.235 155.233-4.876 42.515 22.84 22.84 315.57-315.57c-48.71-48.709-127.68-48.709-176.38.001z" fill="#ffa2ff"/><path d="m315.29 151.034-178.23 178.23-65.35-65.35 178.23-178.23c18.05-18.05 47.3-18.05 65.35 0 18.04 18.04 18.04 47.3 0 65.35z" fill="#dd78ef"/></g></g></g></svg>