<svg id="Capa_1" enable-background="new 0 0 512 512" height="512" viewBox="0 0 512 512" width="512" xmlns="http://www.w3.org/2000/svg"><g><g><g><path d="m371.723 189.638-26.733-22.628-154.978 106.285-190.012 238.705 236.91-95.66v46.78c0 17.71 14.36 32.07 32.07 32.07 17.463 0 32.07-14.604 32.07-32.07v-70.26l4.402-16.146 48.859-17.961 12.017 10.11v27.78c0 17.71 14.36 32.07 32.08 32.07 17.462 0 32.07-14.604 32.07-32.07v-49.753l5.927-63.975z" fill="#ffd322"/><path d="m366.328 368.863-65.208 23.967c-7.81-2.64-15.15-7.08-21.38-13.31-21.67-21.68-21.67-56.82 0-78.5 21.68-21.68 56.83-21.68 78.5 0 18.37 18.37 20.848 46.523 8.088 67.843z" fill="#70d940"/></g><g><path d="m147.2 128.22 17.91-46.71 58.19-5.91 92.59 61.27 29.1 30.14-344.99 344.99 95.17-248.13 38.425-26.572 26.851-60.549z" fill="#ffe377"/><path d="m204.2 262.05c-29.66 29.65-78.25 29.61-109.03 1.82l52.03-135.65c20.59-.4 41.29 7.24 57 22.95 30.61 30.62 30.61 80.26 0 110.88z" fill="#ff5b5b"/></g></g><g><g><path d="m512 315.63-52.692 20.26-21.012-91.134-71.968-66.267v-32.669l7.438-46.395 45.794-6.986c57.11 57.121 92.44 136.031 92.44 223.191z" fill="#8e4813"/><path d="m196.37 0-20.26 52.84 91.134 21.012 66.267 71.968h32.669l53.38-53.38c-57.12-57.11-136.03-92.44-223.19-92.44z" fill="#bb5f19"/></g><g><path d="m366.328 145.82-21.19 3.988v17.202c4.37 4.53 7.36 10.41 8.26 16.92 4.176 29.896 25.561 44.892 48.85 60.5 8.97 6 15.1 15.56 16.82 26.21l11.41 76.25 28.83-11-10.61-69.96c-3.06-18.92-13.9-35.81-29.75-46.43-15.376-10.297-32.997-19.321-35.83-39.71-1.83-13.13-7.91-24.93-16.79-33.97z" fill="#ff3939"/><path d="m366.18 145.82-21.19 21.19c-4.53-4.37-10.41-7.36-16.92-8.26-29.896-4.176-44.892-25.561-60.5-48.85-6-8.97-15.56-15.1-26.21-16.82l-76.25-11.57 11-28.67 69.96 10.61c18.92 3.06 35.81 13.9 46.43 29.75 10.297 15.376 19.321 32.997 39.71 35.83 13.13 1.83 24.93 7.91 33.97 16.79z" fill="#ff5b5b"/></g></g><g><g><g><path d="m165.77 346.23-31.493 18.047-24.347 37.793c3.49 23.69 24.31 42.25 48.75 42.25 26.63 0 49.85-23.59 49.33-50.27-.47-24.15-18.98-44.38-42.24-47.82zm-6.68 68.09c-11.79-.88-18.35-7.19-19.68-18.93-.21-10.81 8.5-19.68 19.31-19.68 11.56 1.03 17.99 7.34 19.29 18.93-.87 11.78-7.18 18.34-18.92 19.68z" fill="#04303e"/></g></g><path d="m165.77 346.23-55.84 55.84c-.3-2-.47-4.03-.51-6.09-.53-26.9 21.43-49.73 48.33-50.26 2.72-.06 5.4.12 8.02.51z" fill="#09607d"/></g></g></svg>