<svg id="Capa_1" enable-background="new 0 0 512 512" height="512" viewBox="0 0 512 512" width="512" xmlns="http://www.w3.org/2000/svg"><g><g><g><path d="m483.09 242.54-59.111 66.843-62.359-20.085-30.237 56.851-31.923-52.426-43.46 25.617-15.511 30.894 15.511 26.266 36.23 27.1h157.62l33.24-27.1z" fill="#71390f"/><path d="m217.6 302.745-27.153-48.511h-15.064l-51.319 46.979h-48l-47.154-58.673v133.96l33.622 27.096h158.042l35.426-27.096v-57.16z" fill="#8e4813"/></g><g><path d="m179.2 242.54-22.682-17.583h-104.17l-23.438 17.583c0 42.42 34.39 76.8 76.8 76.8 36.97 0 67.83-26.11 75.15-60.89l8.055-.641v-10.443z" fill="#ff5b5b"/><g><path d="m299.46 242.54 12.774 1.737v50.553l-12.774 11.04c-12.36 8.49-27.32 13.47-43.46 13.47l-8.872-41.361 8.872-35.439 12.489-17.583h22.213z" fill="#fb0023"/><path d="m256 242.54v76.8c-36.97 0-67.83-26.11-75.14-60.89-1.09-5.13-1.66-10.46-1.66-15.91l16.694-17.583h45.212z" fill="#ff3939"/></g></g><path d="m483.09 242.54c0 42.42-34.39 76.8-76.81 76.8-16.64 0-32.07-5.3-44.66-14.31l-12.62-14.03v-38.229l12.62-10.231 25.422-14.859h69.191z" fill="#ff3939"/><g><path d="m483.09 178.88v63.66h-121.47v79.04c0 17.17-13.91 31.09-31.07 31.09h-.01c-17.17 0-31.08-13.92-31.08-31.09v-79.04h-43.46l-15.511-34.97 15.511-28.69 21.06-27.54h190.53z" fill="#ffd322"/><path d="m256 178.88v63.66h-227.09v-63.66l19.069-27.54h192.255z" fill="#ffe377"/></g></g><g><g><path d="m512 178.88h-256l-28.787-76.73 28.787-76.73h102.54c83.624 0 153.46 69.836 153.46 153.46z" fill="#ff9000"/><path d="m256 25.42v153.46h-256c0-84.75 68.71-153.46 153.46-153.46z" fill="#ffb555"/></g><g><g><g><g><path d="m117.944 102.141h30v30h-30z" fill="#dc7d00"/></g></g><g><path d="m364.056 102.141h30v30h-30z" fill="#c46e06"/></g></g><g><path d="m271 72.16v30h-15l-5.298-15 5.298-15z" fill="#c46e06"/><path d="m241 72.16h15v30h-15z" fill="#dc7d00"/></g></g></g><g><path d="m512 376.5v9.93c0 55.31-44.84 100.15-100.15 100.15h-155.85l-15.511-55.04 15.511-55.04z" fill="#ff9000"/><path d="m256 376.5v110.08h-155.85c-55.31 0-100.15-44.84-100.15-100.15v-9.93z" fill="#ffb555"/></g></g></svg>