<?xml version="1.0" standalone="no"?>
<!DOCTYPE svg PUBLIC "-//W3C//DTD SVG 20010904//EN"
 "http://www.w3.org/TR/2001/REC-SVG-20010904/DTD/svg10.dtd">
<svg version="1.0" xmlns="http://www.w3.org/2000/svg"
 width="900.000000pt" height="970.000000pt" viewBox="0 0 900.000000 970.000000"
 preserveAspectRatio="xMidYMid meet">

<g transform="translate(0.000000,970.000000) scale(0.100000,-0.100000)"
fill="#000000" stroke="none">
<path d="M2204 9269 c-310 -8 -420 -20 -491 -55 -107 -52 -164 -144 -313 -514
-193 -479 -253 -625 -256 -629 -3 -3 -57 -10 -122 -17 -222 -22 -296 -84 -263
-221 12 -47 31 -82 100 -178 42 -59 49 -110 26 -173 -10 -26 -67 -145 -127
-265 -160 -322 -208 -456 -208 -593 0 -184 120 -354 250 -354 77 0 126 42 184
159 44 87 68 165 166 541 112 430 161 567 237 666 52 69 166 111 557 208 310
77 494 116 689 146 326 49 511 82 536 95 27 14 81 68 119 119 74 98 -44 201
-243 214 -45 2 -176 -9 -370 -32 -165 -20 -428 -52 -585 -71 -157 -19 -314
-37 -349 -41 l-64 -7 6 51 c14 122 172 362 289 440 l41 27 326 6 c356 6 395
11 456 62 52 42 75 97 75 180 0 108 -36 164 -131 206 -42 19 -201 43 -254 39
-11 -1 -138 -5 -281 -9z"/>
<path d="M7525 9223 c-151 -19 -326 -67 -545 -148 -255 -94 -227 -90 -402 -65
-299 43 -344 32 -436 -108 -31 -47 -68 -94 -82 -104 -14 -10 -72 -36 -129 -58
-57 -21 -105 -41 -108 -43 -12 -13 -63 -229 -63 -269 0 -56 12 -65 137 -99 43
-11 82 -24 86 -28 14 -14 -131 -443 -288 -851 -187 -490 -232 -666 -251 -991
-8 -150 -4 -168 48 -202 49 -31 87 -34 143 -8 138 63 242 304 295 686 27 194
63 372 93 460 21 59 288 671 399 915 21 45 48 87 68 103 181 153 1049 362
1214 293 52 -22 54 -35 10 -73 -88 -76 -197 -119 -709 -278 -333 -104 -523
-242 -557 -406 -10 -50 -10 -60 6 -84 26 -40 127 -81 258 -106 189 -35 1030
-249 1065 -271 18 -11 87 -79 153 -152 66 -73 137 -145 159 -160 36 -25 42
-27 67 -14 84 40 116 196 66 323 -74 189 -295 361 -815 634 -76 40 -136 75
-134 78 3 2 85 13 183 24 208 22 264 31 396 65 273 68 441 164 506 288 23 43
27 63 26 131 0 184 -102 334 -293 434 -125 65 -244 91 -405 90 -72 -1 -144 -4
-161 -6z"/>
<path d="M4249 8916 c-121 -34 -231 -130 -293 -258 l-36 -73 -6 -190 -7 -190
44 -64 c100 -146 350 -281 518 -281 109 0 329 112 448 227 73 71 106 138 107
213 0 51 -6 67 -94 227 l-95 172 -120 97 c-102 84 -129 101 -185 116 -75 21
-211 23 -281 4z"/>
<path d="M3663 7359 c-174 -20 -266 -55 -312 -119 -91 -125 -386 -923 -515
-1390 -139 -504 -137 -745 8 -878 148 -137 517 -134 945 7 457 151 840 369
966 551 l29 41 -19 36 c-28 51 -125 137 -172 151 -22 7 -70 12 -106 12 -69 0
-47 7 -747 -236 -173 -60 -190 -64 -273 -64 -48 0 -109 5 -133 11 -46 12 -46
12 -39 48 12 63 57 194 87 256 124 247 270 314 838 380 392 45 938 130 956
148 4 3 9 26 11 51 5 43 3 48 -33 85 -30 30 -59 45 -124 66 -84 27 -88 27
-270 21 -102 -3 -300 -15 -440 -26 -140 -11 -353 -23 -473 -27 l-217 -6 6 109
c10 181 47 271 140 333 97 64 205 80 531 81 127 0 242 4 255 9 17 6 29 27 47
77 l23 69 -69 66 c-82 78 -170 124 -263 139 -76 12 -533 11 -637 -1z"/>
<path d="M7489 6323 c-112 -56 -258 -238 -360 -451 -27 -56 -124 -276 -215
-488 -174 -406 -255 -584 -368 -801 -77 -150 -69 -147 -150 -65 l-49 50 -18
149 c-63 496 -163 862 -325 1191 -52 106 -90 172 -99 172 -29 0 -210 -31 -243
-41 -56 -18 -195 -197 -334 -429 -119 -200 -399 -740 -506 -978 -77 -169 -101
-244 -113 -349 -26 -237 70 -410 239 -429 41 -5 57 -1 127 35 77 39 141 90
170 135 7 11 43 125 80 251 36 127 94 313 127 415 85 260 215 590 232 590 3 0
17 -37 32 -82 228 -695 457 -1124 650 -1219 62 -31 133 -31 191 -1 246 128
666 833 1021 1717 103 258 142 381 149 477 7 87 -5 127 -45 158 -38 30 -124
27 -193 -7z"/>
<path d="M1328 6110 c-66 -20 -93 -47 -117 -117 -83 -240 -222 -595 -356 -908
-253 -593 -317 -800 -332 -1075 -10 -198 24 -307 110 -349 24 -12 62 -21 86
-21 50 0 118 33 131 63 5 12 19 78 30 147 29 167 86 434 116 537 13 46 100
272 193 501 93 229 185 465 205 524 68 208 111 454 104 598 l-3 65 -45 23
c-46 23 -76 26 -122 12z"/>
<path d="M7711 5185 c-125 -35 -225 -121 -293 -251 l-36 -69 -9 -185 c-10
-184 -10 -185 14 -233 48 -96 151 -184 304 -256 199 -95 342 -77 569 74 144
95 222 202 223 304 1 42 -11 70 -90 217 l-90 169 -114 97 c-141 120 -184 139
-324 144 -69 3 -117 -1 -154 -11z"/>
<path d="M7357 3914 c-132 -29 -387 -136 -583 -246 -422 -233 -720 -508 -786
-722 -26 -84 -21 -191 12 -279 40 -105 151 -202 292 -253 24 -9 232 -40 463
-69 231 -29 449 -58 485 -65 253 -45 449 -131 563 -248 42 -42 48 -54 45 -83
-3 -30 -10 -38 -63 -66 -152 -82 -324 -136 -480 -151 -75 -8 -154 -3 -480 29
-214 21 -410 40 -435 43 -44 4 -47 3 -98 -51 -30 -30 -66 -80 -80 -111 -23
-50 -26 -70 -27 -167 l0 -110 95 -33 c100 -35 322 -88 418 -100 156 -20 593
61 917 169 328 109 566 273 648 446 30 65 32 73 31 183 0 98 -4 127 -27 193
-80 231 -258 376 -596 487 -156 51 -352 90 -731 145 -404 58 -371 51 -364 83
23 101 94 194 203 266 93 62 120 72 461 175 365 111 464 154 538 236 73 79 89
151 53 231 -30 66 -66 78 -251 81 -110 2 -175 -2 -223 -13z"/>
<path d="M3504 3841 c-117 -10 -161 -17 -224 -38 -79 -27 -229 -93 -394 -174
-88 -43 -163 -76 -167 -71 -4 4 -12 50 -17 103 -12 124 -30 154 -101 164 -99
13 -180 -33 -220 -125 -12 -28 -35 -115 -50 -194 -16 -79 -40 -169 -54 -199
l-25 -56 -70 6 c-71 6 -131 -6 -151 -31 -8 -10 -7 -39 5 -107 32 -183 6 -335
-141 -844 -132 -453 -176 -707 -143 -829 19 -72 47 -89 158 -94 121 -6 180 9
458 119 125 50 367 135 537 190 681 220 971 335 1322 526 247 134 447 275 587
411 185 181 258 328 258 522 -1 248 -102 429 -314 563 -94 59 -285 116 -477
143 -123 18 -621 27 -777 15z m491 -381 c283 -48 532 -155 618 -265 73 -93 87
-207 38 -309 -52 -107 -209 -231 -430 -341 -273 -136 -570 -235 -1616 -539
-362 -105 -395 -114 -395 -104 0 5 39 162 86 349 91 365 160 587 227 739 36
80 50 100 92 133 70 53 420 228 544 271 262 91 551 114 836 66z"/>
</g>
</svg>
