<?xml version="1.0" standalone="no"?>
<!DOCTYPE svg PUBLIC "-//W3C//DTD SVG 20010904//EN"
 "http://www.w3.org/TR/2001/REC-SVG-20010904/DTD/svg10.dtd">
<svg version="1.0" xmlns="http://www.w3.org/2000/svg"
 width="1232.000000pt" height="693.000000pt" viewBox="0 0 1232.000000 693.000000"
 preserveAspectRatio="xMidYMid meet">

<g transform="translate(0.000000,693.000000) scale(0.100000,-0.100000)"
fill="#000000" stroke="none">
<path d="M7417 5874 c-4 -21 -7 -60 -7 -86 0 -29 -6 -53 -16 -62 -14 -15 -14
-16 4 -16 12 0 22 -9 25 -21 4 -14 10 -18 18 -13 9 5 10 2 6 -9 -5 -12 -1 -17
12 -17 12 0 21 -10 25 -25 4 -16 13 -25 26 -25 12 0 20 -7 20 -17 0 -15 2 -16
10 -3 9 13 11 13 20 0 8 -13 10 -12 11 5 0 11 2 36 4 55 1 19 1 29 -2 23 -10
-27 -18 -11 -18 38 0 38 -5 54 -18 64 -11 8 -21 31 -24 55 l-6 43 -12 -29 -12
-29 -8 35 c-5 19 -8 37 -8 40 1 3 -6 12 -15 19 -14 13 -15 12 -10 -7 8 -28 0
-29 -11 0 -7 19 -9 16 -14 -18z m20 -146 c-3 -7 -5 -2 -5 12 0 14 2 19 5 13 2
-7 2 -19 0 -25z m90 -90 c-3 -8 -6 -5 -6 6 -1 11 2 17 5 13 3 -3 4 -12 1 -19z"/>
<path d="M7384 5661 c4 -6 13 -11 21 -11 7 0 16 -8 19 -17 3 -11 4 -7 3 7 -1
18 -9 26 -26 28 -15 2 -21 0 -17 -7z"/>
<path d="M7545 5530 c-4 -6 -3 -16 3 -22 6 -6 12 -6 17 2 4 6 3 16 -3 22 -6 6
-12 6 -17 -2z"/>
<path d="M8373 5523 c9 -2 25 -2 35 0 9 3 1 5 -18 5 -19 0 -27 -2 -17 -5z"/>
<path d="M6955 5509 c-27 -5 -56 -17 -62 -26 -10 -13 -13 -14 -13 -2 0 12 -2
12 -10 -1 -9 -13 -10 -13 -10 0 0 10 -3 11 -8 4 -6 -10 -41 -21 -86 -28 -11
-1 -22 -8 -24 -14 -2 -7 -12 -12 -22 -12 -10 0 -22 -9 -25 -20 -3 -11 -12 -20
-20 -20 -7 0 -15 -9 -18 -21 -3 -12 -10 -18 -15 -15 -6 3 -12 -1 -16 -9 -6
-17 -53 -20 -58 -4 -3 8 -21 9 -58 4 -42 -6 -49 -10 -31 -14 19 -5 21 -8 10
-18 -8 -6 -29 -14 -47 -18 -24 -5 -32 -11 -28 -22 4 -10 0 -13 -12 -11 -18 3
-46 -37 -37 -52 3 -5 -5 -16 -17 -24 -12 -9 -17 -16 -10 -16 10 0 10 -5 2 -21
-11 -19 -13 -19 -29 -5 -24 22 -30 20 -41 -10 -13 -33 -52 -30 -60 5 -5 20
-16 28 -59 38 -56 15 -105 9 -66 -7 11 -5 14 -9 8 -9 -8 -1 -13 -14 -13 -31 0
-23 -5 -30 -19 -30 -23 0 -45 -25 -36 -41 4 -6 18 -9 31 -6 13 2 24 0 24 -4 0
-5 -14 -9 -31 -9 -23 0 -30 -4 -26 -14 3 -8 -1 -17 -9 -20 -9 -3 -14 1 -14 11
0 9 -7 24 -15 34 -13 14 -20 15 -40 5 -30 -13 -40 -36 -23 -48 28 -18 -17 -29
-102 -25 -47 2 -70 2 -52 0 51 -7 38 -25 -15 -22 l-48 3 0 -37 c0 -41 -10 -50
-17 -14 -6 37 2 67 20 67 12 0 13 3 4 12 -16 16 -47 20 -77 8 -27 -10 -35 -40
-10 -40 8 0 18 0 23 0 4 0 7 5 7 10 0 6 4 10 9 10 4 0 9 -23 10 -51 1 -46 -1
-52 -24 -61 -14 -5 -35 -7 -47 -5 -13 2 -23 0 -23 -5 0 -6 -27 -7 -67 -2 -38
4 -72 7 -78 6 -26 -2 -44 -9 -58 -20 -12 -10 -16 -10 -20 0 -2 7 -8 10 -12 6
-4 -4 -2 -14 5 -23 7 -9 9 -19 5 -23 -4 -4 -10 -1 -12 6 -6 17 -52 15 -59 -3
-4 -8 -15 -15 -25 -15 -10 0 -19 -4 -19 -10 0 -5 -20 -10 -45 -10 -29 0 -48
-5 -51 -13 -3 -8 -19 -14 -37 -15 -21 -1 -37 -9 -50 -26 -24 -33 -72 -57 -86
-43 -7 7 -12 1 -17 -17 -6 -26 -52 -59 -75 -54 -7 2 -15 -8 -18 -22 -4 -17
-20 -32 -49 -45 -31 -14 -44 -28 -49 -47 -3 -16 -11 -28 -18 -28 -7 0 -15 -7
-19 -15 -3 -8 -16 -15 -28 -16 -22 -1 -22 -1 2 -9 25 -8 25 -8 -5 -10 l-30 -2
30 -8 30 -8 -32 -1 c-22 -1 -33 -6 -33 -16 0 -8 -9 -15 -20 -15 -11 0 -23 -7
-26 -15 -4 -8 -14 -15 -23 -15 -11 0 -17 -10 -18 -30 -1 -16 -9 -41 -18 -54
-9 -14 -14 -30 -10 -36 4 -6 -11 -11 -42 -11 -30 -1 -37 -4 -20 -6 15 -2 25
-9 21 -14 -3 -5 -10 -7 -15 -4 -5 4 -9 2 -9 -4 0 -5 8 -12 18 -14 16 -4 16 -5
0 -6 -10 0 -18 -8 -18 -16 0 -8 -4 -15 -10 -15 -5 0 -10 -7 -10 -15 0 -10 -10
-15 -30 -15 -16 0 -30 5 -30 10 0 6 -35 10 -82 11 -50 1 -73 4 -58 8 14 4 25
12 24 19 -1 7 -2 18 -2 26 -1 8 -10 17 -19 19 -15 4 -14 6 5 12 28 9 24 29 -6
33 -22 3 -28 13 -15 25 3 4 12 2 20 -4 10 -9 13 -5 13 20 l0 31 -59 0 c-40 0
-63 -5 -71 -15 -7 -8 -20 -14 -29 -13 -8 2 -16 -2 -16 -9 0 -15 -13 -28 -28
-28 -7 0 -12 -6 -12 -14 0 -15 -33 -31 -52 -24 -7 3 -10 -3 -6 -16 4 -17 1
-21 -20 -21 -22 0 -25 -4 -21 -27 10 -61 16 -83 23 -83 4 0 7 -9 8 -20 2 -20
-12 -25 -64 -20 -17 1 -23 -4 -23 -19 0 -12 -4 -21 -10 -21 -5 0 -10 -7 -10
-16 0 -8 5 -12 10 -9 6 3 10 2 10 -4 0 -7 17 -8 45 -4 31 4 45 2 45 -6 0 -6
-17 -11 -40 -11 -46 0 -53 -15 -13 -25 24 -6 26 -8 10 -16 -9 -6 -17 -19 -17
-29 0 -22 -5 -23 -35 -10 -11 5 -15 9 -9 9 7 1 14 10 17 22 4 16 2 20 -12 16
-14 -3 -16 1 -13 23 5 36 -16 49 -37 24 -9 -11 -25 -23 -36 -28 -20 -7 -20 -8
-1 -22 11 -8 14 -14 8 -14 -7 0 -12 -7 -12 -15 0 -8 -8 -15 -17 -15 -28 0 6
-19 37 -21 21 -1 22 -2 5 -6 -11 -3 -25 -9 -32 -15 -7 -6 -14 -5 -18 2 -4 6
-16 8 -28 5 -17 -5 -19 -4 -7 4 12 8 6 11 -25 12 -39 1 -110 15 -90 18 26 3
-25 21 -62 21 -32 0 -43 4 -43 15 0 8 -4 15 -10 15 -5 0 -7 7 -4 15 4 9 0 15
-10 16 -9 1 -20 3 -26 4 -5 1 -14 3 -20 4 -5 0 -7 8 -3 17 5 12 -1 15 -28 12
-22 -2 -34 -8 -34 -18 0 -8 -10 -16 -23 -18 -23 -4 -23 -4 -5 -24 14 -16 15
-19 3 -17 -9 2 -16 0 -16 -6 0 -5 6 -9 12 -7 7 1 15 -2 19 -8 3 -5 1 -10 -5
-10 -6 0 -9 -4 -6 -9 7 -10 -27 -21 -66 -21 -18 0 -28 5 -28 15 0 8 -4 15 -10
15 -5 0 -10 5 -10 11 0 18 -42 50 -59 45 -56 -16 -83 -16 -110 -3 -25 13 -31
13 -35 1 -7 -17 -37 -19 -33 -2 2 14 0 14 -116 16 -56 1 -86 6 -82 12 3 6 0
10 -8 10 -8 0 -18 7 -21 16 -5 12 -9 14 -20 5 -7 -6 -22 -8 -32 -4 -17 6 -16
7 2 13 15 6 9 10 -26 17 -25 5 -49 7 -55 4 -14 -9 -66 -6 -89 4 -13 6 -21 4
-24 -4 -3 -8 -8 -6 -17 6 -13 17 -14 17 -20 0 -7 -17 -8 -17 -21 0 -13 17 -13
17 -14 -2 0 -12 -7 -21 -17 -22 -10 -1 -47 -5 -83 -9 -36 -3 -91 -7 -123 -8
-50 -1 -59 -4 -63 -23 -4 -16 -11 -20 -30 -17 -14 3 -44 -1 -67 -7 -23 -6 -76
-13 -117 -15 -42 -2 -76 -8 -78 -14 -3 -8 -8 -7 -18 0 -9 9 -22 9 -46 1 -18
-6 -85 -13 -148 -17 -101 -6 -184 -20 -140 -24 10 -1 9 -4 -5 -10 -11 -5 -99
-9 -195 -9 -112 0 -168 4 -155 9 13 6 -2 7 -42 3 -40 -3 -63 -2 -63 5 0 12
-51 23 -65 14 -5 -3 -22 -5 -37 -3 -14 1 -29 -3 -33 -9 -5 -8 -14 -6 -32 5
-17 11 -34 14 -51 10 -15 -4 -21 -10 -14 -12 28 -11 -3 -23 -61 -24 -55 -2
-57 -3 -22 -8 26 -4 36 -9 27 -14 -20 -13 -4 -27 31 -27 40 0 77 -10 77 -20 0
-5 -8 -6 -19 -3 -10 3 -22 0 -25 -6 -5 -7 5 -11 29 -11 25 0 34 4 29 12 -5 8
2 9 26 5 18 -4 45 -7 61 -7 19 0 29 -5 29 -15 0 -8 -4 -15 -10 -15 -5 0 -10 5
-10 10 0 6 -15 10 -32 10 -32 -1 -32 -1 -10 -13 18 -10 20 -15 10 -25 -10 -10
-10 -14 0 -21 7 -4 10 -15 6 -24 -5 -14 1 -17 42 -18 27 -1 41 -3 32 -6 -10
-2 -18 -9 -18 -14 0 -9 11 -11 97 -13 29 0 53 -4 53 -8 0 -4 9 -10 20 -13 11
-3 20 -13 20 -21 0 -8 5 -12 10 -9 6 4 8 11 5 16 -4 5 -2 9 3 9 5 0 12 -9 15
-21 3 -12 10 -18 17 -14 7 4 14 -2 17 -14 3 -13 12 -20 22 -19 9 2 15 -3 13
-11 -2 -8 2 -17 9 -21 18 -11 3 -27 -32 -34 -23 -4 -29 -10 -26 -23 3 -10 8
-48 12 -85 l6 -67 -41 2 c-23 2 -44 -1 -46 -5 -3 -4 22 -8 55 -8 l61 0 0 -49
c0 -45 3 -52 32 -73 18 -13 34 -22 36 -20 9 9 11 -2 2 -18 -9 -16 -8 -20 5
-20 9 0 13 5 10 11 -5 7 13 9 52 7 55 -3 58 -4 59 -29 2 -42 12 -59 34 -59 13
0 19 -4 14 -11 -7 -12 12 -29 34 -29 6 0 12 7 12 15 0 8 7 15 15 15 8 0 15 -7
15 -16 0 -11 6 -13 19 -9 11 3 22 1 26 -5 3 -5 -3 -10 -14 -10 -11 0 -23 -5
-26 -10 -4 -6 5 -9 22 -8 48 3 199 -4 176 -9 -13 -2 -23 -9 -23 -14 0 -5 10
-9 23 -9 17 0 19 -2 7 -10 -23 -15 -3 -24 48 -21 43 2 49 0 47 -18 -1 -11 -4
-24 -8 -27 -16 -16 -5 -25 25 -24 50 3 60 1 53 -10 -3 -6 -17 -7 -30 -4 -13 3
-32 1 -42 -5 -17 -10 -17 -10 0 -11 12 0 17 -8 17 -27 1 -43 22 -63 66 -63 29
0 35 -3 24 -10 -8 -5 -28 -10 -43 -10 -16 0 -26 -4 -22 -9 3 -6 -3 -14 -12
-20 -10 -6 -13 -11 -7 -11 15 0 25 -63 11 -72 -8 -4 -7 -13 0 -30 9 -18 12
-19 12 -5 1 26 21 21 21 -6 0 -13 4 -27 9 -33 16 -17 22 -74 7 -74 -7 0 -17
-20 -23 -45 l-10 -45 36 5 c32 6 34 5 19 -8 -10 -7 -22 -26 -27 -40 -13 -34
-31 -35 -31 -3 0 14 -4 28 -10 31 -5 3 -7 0 -4 -8 3 -8 1 -18 -5 -22 -14 -8
-14 -55 -1 -55 6 0 10 -11 10 -24 0 -14 5 -28 10 -31 6 -4 8 -11 5 -16 -4 -5
4 -9 17 -9 18 0 20 -2 9 -9 -9 -6 -22 -6 -32 0 -24 12 -29 11 -29 -6 0 -8 5
-14 12 -12 6 1 13 -11 14 -26 2 -22 -1 -27 -12 -23 -8 3 -14 -1 -14 -9 0 -21
30 -7 40 19 16 37 3 -44 -14 -94 -10 -27 -15 -34 -13 -18 3 19 0 28 -9 28 -9
0 -14 12 -14 33 -1 25 -3 28 -10 16 -10 -17 -7 -220 3 -236 4 -6 9 -58 12
-117 3 -60 9 -124 14 -144 4 -21 7 -47 6 -60 -1 -12 1 -22 5 -22 4 0 7 -6 7
-12 0 -7 10 -47 22 -88 43 -145 50 -179 56 -247 3 -37 12 -99 20 -138 8 -38
21 -113 30 -165 9 -52 21 -108 26 -125 4 -16 20 -68 34 -115 34 -117 58 -212
57 -232 0 -10 3 -18 9 -18 5 0 9 -13 9 -29 0 -17 5 -33 10 -36 6 -3 10 -14 10
-23 0 -9 14 -63 32 -119 l33 -103 4982 0 4983 0 0 2054 c0 1634 -3 2055 -12
2059 -10 4 -10 6 0 6 8 1 12 20 12 61 l0 60 -25 -12 c-16 -7 -29 -8 -35 -2
-11 11 -100 6 -100 -6 0 -5 8 -11 18 -13 16 -4 16 -5 0 -6 -10 0 -18 -6 -18
-12 0 -5 -5 -7 -10 -4 -6 4 -8 11 -5 16 4 5 -1 9 -9 9 -9 0 -16 -6 -16 -14 0
-8 -10 -17 -22 -19 -22 -4 -22 -4 2 -6 l25 -2 -24 -13 c-24 -13 -24 -14 -4
-20 20 -6 20 -9 7 -34 -8 -15 -14 -34 -14 -42 0 -13 -1 -13 -11 0 -8 11 -12
12 -16 3 -6 -17 -33 -17 -33 0 0 8 -9 22 -20 32 -27 25 -26 61 3 70 19 6 19 8
5 12 -34 9 -18 23 27 23 33 0 45 4 45 14 0 8 -4 18 -10 21 -5 3 -10 -1 -10 -9
0 -9 -4 -16 -10 -16 -5 0 -10 5 -10 10 0 6 5 19 10 30 6 11 15 29 20 40 11 21
6 40 -11 40 -5 0 -9 -7 -9 -15 0 -8 -4 -15 -9 -15 -6 0 -13 -20 -17 -45 -3
-25 -10 -45 -14 -45 -5 0 -4 15 1 32 13 47 11 58 -9 58 -35 0 -53 22 -46 58 6
31 8 32 55 32 27 0 49 5 49 10 0 6 -12 10 -26 10 -14 0 -23 4 -19 10 3 6 -3
10 -15 10 -13 0 -19 4 -14 11 3 6 3 14 -2 18 -17 12 -34 50 -28 65 7 17 83 16
249 -3 50 -6 93 -11 98 -11 4 0 7 25 7 55 0 55 -2 58 -42 58 -10 0 -18 3 -18
7 0 5 -22 13 -50 20 -27 7 -50 16 -50 21 0 5 -17 9 -39 9 -22 0 -44 6 -51 15
-7 8 -16 13 -19 10 -10 -6 -81 17 -81 26 0 4 -23 10 -50 14 -28 4 -47 11 -44
16 3 5 -5 9 -18 8 -13 0 -17 -3 -10 -6 6 -2 12 -9 12 -15 0 -13 -152 -2 -160
12 -5 8 -52 13 -94 11 -16 -1 -18 -7 -13 -42 4 -31 15 -51 46 -81 23 -21 41
-34 41 -28 0 7 6 5 15 -4 8 -8 15 -17 15 -20 0 -14 36 -46 52 -46 10 0 18 -4
18 -10 0 -5 7 -10 16 -10 8 0 12 5 9 10 -3 6 -1 10 4 10 6 0 11 -4 11 -9 0 -5
10 -11 21 -14 14 -4 20 -11 16 -21 -5 -11 3 -17 28 -22 19 -3 35 -10 35 -15 0
-5 7 -9 16 -9 8 0 12 -4 9 -10 -3 -5 3 -10 15 -10 12 0 19 -4 15 -9 -3 -6 3
-14 12 -20 16 -9 14 -10 -10 -11 -16 0 -26 -4 -23 -9 3 -4 -6 -6 -20 -3 -14 2
-28 11 -31 18 -7 19 -23 18 -23 -1 0 -8 -9 -15 -20 -15 -14 0 -18 5 -13 17 4
11 3 14 -6 9 -12 -8 -56 38 -56 59 0 5 -16 11 -35 13 -19 2 -38 9 -42 15 -5 7
-8 3 -8 -10 0 -15 5 -21 14 -17 8 3 17 1 21 -5 4 -7 -5 -12 -22 -12 -23 -2
-24 -2 -5 -6 12 -2 22 -9 22 -14 0 -19 -21 -49 -34 -49 -8 0 -16 -6 -19 -13
-4 -10 3 -12 25 -9 20 3 33 -1 43 -14 7 -10 11 -22 9 -26 -3 -5 2 -8 10 -8 25
0 19 -18 -6 -22 -16 -2 -23 -10 -23 -25 0 -28 -19 -31 -23 -3 -4 22 -18 27
-25 8 -7 -21 -20 0 -20 32 0 21 -5 30 -16 30 -22 0 -71 -57 -71 -81 0 -11 -7
-19 -16 -19 -10 0 -14 -6 -11 -14 3 -8 1 -17 -6 -20 -7 -2 11 -5 38 -7 l50 -2
-45 -7 c-30 -5 -37 -8 -20 -10 14 -1 30 -2 37 -1 6 1 14 -3 18 -9 3 -5 -2 -10
-12 -11 -16 0 -16 -1 2 -9 19 -8 19 -9 -2 -9 -14 -1 -23 -7 -23 -16 0 -8 -4
-15 -10 -15 -5 0 -10 5 -10 10 0 6 -5 10 -11 10 -5 0 -7 -4 -4 -10 4 -6 -8
-10 -29 -10 -26 0 -34 -4 -30 -14 3 -9 -6 -15 -28 -20 -23 -5 -29 -9 -20 -15
10 -6 7 -10 -12 -13 -19 -4 -31 0 -41 15 -11 16 -26 21 -62 21 -30 1 -53 7
-60 16 -19 23 -15 30 15 29 24 0 25 -1 7 -9 -34 -14 8 -24 52 -12 l38 10 -35
2 c-19 1 -29 4 -22 7 15 6 16 43 1 43 -7 0 -17 -7 -24 -16 -10 -15 -15 -15
-41 -3 -31 15 -47 59 -21 59 22 0 41 27 25 33 -10 4 -10 7 1 15 10 8 9 12 -6
23 -11 8 -22 22 -26 32 -4 10 -11 15 -17 12 -14 -9 -13 -32 3 -39 6 -3 3 -4
-8 -3 -11 1 -23 6 -27 12 -4 5 -15 10 -25 10 -10 0 -17 6 -16 15 3 19 -66 51
-95 43 -17 -4 -20 -1 -15 16 5 20 3 21 -34 15 -40 -6 -40 -6 -47 29 -3 19 -4
42 0 51 5 14 -3 16 -55 16 -46 0 -63 -4 -67 -15 -4 -8 -12 -15 -20 -15 -8 0
-14 -4 -14 -10 0 -5 -5 -10 -10 -10 -7 0 -7 7 0 20 10 18 7 21 -20 26 -16 4
-30 13 -30 20 0 9 -13 14 -37 15 -31 0 -34 2 -18 9 19 8 19 9 -2 9 -25 1 -32
21 -8 21 18 0 20 16 3 24 -7 4 3 4 22 1 19 -3 37 -10 38 -15 2 -6 15 -10 28
-10 17 0 23 4 18 12 -5 8 -2 9 9 5 10 -3 18 -3 18 1 12 73 5 122 -13 104 -8
-8 -46 -10 -117 -6 -94 5 -104 4 -88 -9 16 -13 16 -15 2 -21 -9 -3 -13 -10
-10 -16 8 -13 -19 -13 -66 2 -39 11 -53 28 -24 28 10 0 15 10 15 30 0 17 -4
30 -10 30 -5 0 -10 -7 -10 -15 0 -35 -19 -11 -23 28 l-4 42 -2 -50 -2 -50 -19
24 c-11 13 -20 20 -20 17 0 -4 -13 7 -30 24 -34 35 -70 40 -70 10 0 -25 -18
-26 -27 -2 -4 9 -9 19 -13 22 -3 3 -13 21 -23 40 -15 32 -17 33 -17 10 -1 -24
-1 -24 -15 -5 -8 11 -19 26 -25 33 -8 9 -4 12 17 13 15 1 31 1 36 0 4 0 7 10
7 24 0 23 -3 24 -41 20 -23 -3 -46 -8 -50 -11 -17 -10 -9 9 9 22 10 8 12 13 5
14 -15 0 -18 36 -4 42 4 2 11 12 15 23 4 16 1 21 -13 21 -12 0 -17 -6 -14 -17
5 -19 -12 -34 -22 -19 -3 5 -19 10 -36 10 -26 0 -34 9 -30 33 0 4 -9 7 -22 7
-13 0 -32 7 -43 15 -25 19 -34 19 -34 0 0 -19 -39 -20 -46 -1 -3 8 -20 17 -39
20 -18 4 -35 12 -37 18 -2 6 -13 12 -24 14 -10 1 -45 5 -76 9 -38 4 -61 12
-68 23 -5 10 -10 12 -10 5 0 -9 -17 -13 -50 -13 -44 0 -50 2 -50 21 0 15 -5
19 -15 15 -8 -3 -15 -1 -15 4 0 6 5 10 10 10 6 0 10 4 10 9 0 5 -24 12 -54 15
-37 5 -56 13 -61 24 -5 14 -7 14 -16 2 -8 -13 -11 -13 -20 3 -5 9 -22 17 -37
18 l-27 1 25 8 c23 7 22 8 -10 9 -36 1 -120 29 -120 40 0 4 -18 5 -40 3 -27
-3 -40 0 -40 8 0 8 -10 10 -34 6 -25 -5 -39 -2 -51 10 -14 14 -21 15 -36 6
-16 -10 -19 -9 -19 3 0 10 -10 15 -31 15 -24 0 -30 4 -25 15 3 8 1 15 -4 15
-6 0 -10 -7 -10 -17 0 -15 -2 -15 -17 -1 -26 23 -91 48 -123 48 -16 0 -30 4
-32 9 -1 4 -13 11 -25 15 -16 5 -23 2 -26 -11 -4 -17 -5 -17 -6 0 0 10 -5 16
-10 13 -5 -4 -22 -1 -37 5 -23 8 -31 7 -40 -5 -13 -18 -25 -11 -17 10 3 8 0
14 -6 14 -6 0 -11 -4 -11 -10 0 -5 -4 -10 -10 -10 -5 0 -10 7 -10 15 0 11 -9
14 -29 13 -17 -2 -30 2 -30 7 0 14 -45 23 -53 11 -5 -8 -8 -7 -8 1 0 8 -9 9
-27 4 -16 -4 -41 -5 -58 -3 -16 2 -113 3 -215 3 -181 0 -185 0 -197 -22 -7
-14 -8 -30 -3 -44 12 -32 3 -130 -20 -210 -11 -38 -26 -90 -34 -116 -14 -48
-5 -94 16 -86 7 2 21 -3 31 -11 11 -10 43 -18 83 -20 35 -2 64 -8 64 -13 0 -5
16 -9 35 -9 19 0 35 -5 35 -10 0 -6 12 -9 28 -8 15 1 43 -5 62 -14 59 -26 75
-31 83 -30 4 1 7 -2 7 -6 0 -13 40 -55 90 -93 55 -42 109 -100 110 -116 0 -7
5 -13 10 -13 6 0 10 -5 10 -10 0 -9 47 -87 60 -100 3 -3 13 -22 22 -42 10 -21
22 -38 26 -38 5 0 15 -18 22 -40 7 -22 19 -45 27 -51 7 -6 13 -22 13 -35 0
-13 5 -24 10 -24 6 0 10 -5 10 -11 0 -6 9 -23 19 -38 11 -15 23 -39 26 -54 4
-15 11 -27 16 -27 5 0 9 -11 9 -24 0 -14 5 -28 10 -31 6 -3 10 -17 10 -31 0
-14 10 -48 21 -75 17 -40 20 -59 14 -102 -20 -145 -16 -153 75 -158 30 -2 64
-9 75 -16 11 -7 26 -13 33 -13 7 0 20 -7 28 -15 9 -8 24 -15 34 -15 10 0 22
-4 25 -10 3 -5 17 -10 31 -10 13 0 24 -5 24 -11 0 -5 4 -8 8 -5 5 3 23 -4 40
-15 22 -13 51 -19 87 -19 30 0 55 -4 55 -10 0 -5 7 -10 17 -10 9 0 13 -3 10
-7 -4 -3 -2 -12 4 -20 13 -15 73 -18 64 -3 -4 6 7 10 25 10 23 0 33 -5 37 -20
7 -25 20 -26 26 -2 4 15 5 15 6 0 1 -21 64 -37 191 -49 117 -10 146 -15 235
-35 39 -8 86 -17 105 -20 19 -2 37 -8 40 -12 3 -4 16 -9 29 -9 13 -1 27 -6 30
-10 3 -4 24 -10 45 -11 22 -2 46 -10 53 -18 8 -8 17 -14 21 -14 4 0 12 -10 18
-23 7 -12 24 -45 39 -74 14 -29 28 -69 31 -90 2 -21 7 -47 11 -58 4 -11 7 -28
8 -37 1 -10 9 -26 19 -36 9 -11 14 -26 10 -36 -3 -9 -1 -16 5 -16 12 0 15 -39
3 -56 -13 -21 -49 -26 -65 -9 -10 9 -18 11 -22 5 -3 -5 -15 -10 -26 -10 -10 0
-19 -6 -19 -14 0 -8 -5 -16 -12 -18 -10 -4 3 -23 65 -89 9 -10 17 -21 17 -24
0 -3 20 -35 44 -70 24 -35 47 -81 51 -101 5 -28 9 -34 16 -23 7 11 9 11 9 -3
0 -10 5 -18 10 -18 6 0 10 -9 10 -20 0 -11 10 -25 23 -31 27 -12 47 -52 47
-93 0 -27 -1 -28 -13 -11 -8 10 -19 15 -25 11 -6 -4 -21 3 -32 14 -16 16 -28
20 -51 15 -20 -5 -29 -3 -29 6 0 15 -77 89 -91 89 -6 0 -7 5 -4 10 4 6 -6 10
-23 10 -17 0 -32 6 -36 15 -3 8 -21 23 -40 32 -26 12 -39 27 -47 52 -15 49
-24 55 -63 53 -19 -1 -37 2 -41 8 -3 5 -21 10 -38 10 -22 0 -28 3 -18 9 10 6
10 10 1 16 -9 5 -9 9 -1 14 8 5 6 13 -5 27 -13 16 -15 16 -10 2 4 -13 0 -18
-14 -18 -10 0 -21 -8 -23 -17 -3 -11 -5 -7 -6 10 0 15 -6 27 -12 27 -5 0 -7 5
-4 10 3 6 0 10 -8 10 -8 0 -28 7 -46 16 -20 10 -57 16 -101 15 -63 0 -70 2
-70 19 0 10 -4 22 -10 25 -5 3 -10 1 -10 -4 0 -6 -8 -11 -17 -12 -11 0 -13 -3
-5 -6 29 -11 8 -23 -38 -22 -38 2 -50 6 -46 16 3 7 2 14 -2 14 -34 6 -59 5
-68 -2 -7 -6 -28 -9 -49 -7 -21 1 -40 -3 -44 -11 -6 -10 -10 -9 -14 3 -9 23
-77 18 -77 -6 0 -12 -5 -15 -16 -11 -8 3 -13 12 -10 19 4 10 -3 14 -19 14 -27
0 -34 -24 -10 -34 8 -3 15 -10 15 -16 0 -6 -15 1 -34 15 l-33 25 -64 -19 c-35
-10 -82 -22 -103 -26 -29 -5 -36 -9 -25 -16 9 -5 10 -9 2 -9 -6 0 -10 -9 -8
-20 2 -11 -1 -22 -6 -25 -5 -4 -6 -12 -3 -18 4 -7 4 -9 -1 -5 -4 4 -15 2 -23
-5 -13 -10 -14 -8 -10 15 3 15 1 33 -3 40 -6 9 -9 4 -9 -15 0 -17 -4 -26 -10
-22 -6 4 -10 12 -9 18 4 32 -1 40 -16 27 -8 -7 -15 -19 -15 -27 0 -9 -6 -13
-14 -10 -10 4 -17 -2 -22 -16 -11 -37 -32 -54 -62 -50 -80 12 -155 15 -161 7
-14 -20 -51 -33 -81 -29 -36 5 -68 -9 -88 -37 -8 -11 -25 -18 -44 -18 -17 0
-38 -8 -47 -19 -9 -10 -26 -21 -38 -25 -13 -4 -23 -12 -23 -17 0 -5 -9 -9 -20
-9 -11 0 -20 6 -20 13 0 8 -4 7 -10 -3 -8 -13 -11 -13 -19 -1 -5 7 -13 11 -18
8 -17 -11 -7 -52 16 -63 19 -10 20 -12 6 -18 -9 -3 -28 -6 -41 -6 -14 0 -27
-7 -30 -15 -7 -17 -40 -20 -49 -5 -3 6 1 13 9 16 9 3 16 12 16 20 0 7 8 18 18
23 12 8 13 10 3 11 -10 0 -6 9 12 28 15 15 27 31 27 35 0 5 11 20 25 35 14 15
25 30 25 34 0 8 29 44 60 76 8 9 13 18 11 21 -2 3 13 16 34 28 21 12 43 30 48
40 6 10 28 35 49 55 21 21 38 45 38 53 0 8 5 15 10 15 6 0 9 12 8 28 -2 17 1
26 10 24 6 -1 12 5 12 13 0 19 49 64 78 71 12 4 22 9 22 13 0 11 76 51 84 44
3 -3 6 -1 6 5 0 7 6 12 13 12 8 0 20 11 27 25 7 14 19 25 27 25 7 0 35 16 63
36 27 20 50 33 50 28 0 -4 8 3 19 14 10 12 23 22 30 22 13 0 11 21 -4 33 -6 5
3 6 20 4 16 -3 50 3 76 13 26 11 50 16 53 13 3 -4 6 3 6 15 0 14 5 20 14 16 9
-4 15 5 18 25 5 37 2 41 -29 41 -19 0 -23 4 -19 18 4 13 0 18 -16 19 -11 1
-24 7 -28 14 -6 8 -9 8 -13 -2 -5 -12 -8 -11 -17 1 -9 11 -13 12 -17 3 -2 -7
-9 -13 -14 -13 -6 0 -7 5 -4 10 3 6 -1 10 -10 10 -9 0 -13 -4 -10 -10 7 -12 5
-12 -53 -14 -24 -1 -45 1 -48 6 -3 4 6 8 20 8 14 0 27 4 30 9 4 5 -3 7 -13 4
-13 -3 -23 3 -32 18 -12 23 -12 23 -25 -16 l-12 -40 2 40 c0 22 8 45 16 52 11
9 12 12 2 13 -7 0 -10 5 -7 10 3 6 -4 10 -18 10 -27 0 -57 28 -57 53 0 10 -8
17 -20 17 -16 0 -20 7 -20 30 0 38 -20 40 -21 3 l-1 -28 -8 29 c-5 16 -6 34
-3 39 3 6 1 7 -5 3 -7 -4 -12 -14 -12 -22 0 -8 -7 -14 -15 -14 -8 0 -15 -7
-15 -15 0 -23 -17 -18 -24 8 -6 27 -54 57 -90 57 -14 0 -26 4 -26 9 0 8 -37
24 -52 22 -4 0 -5 6 -2 14 8 21 2 19 -55 -16 -41 -25 -55 -30 -83 -24 -32 7
-32 8 -9 17 13 4 32 6 42 3 11 -4 19 -2 19 5 0 17 28 42 40 35 6 -3 10 4 10
18 0 22 -23 43 -42 39 -12 -3 -9 16 5 38 10 17 9 22 -3 31 -11 8 -12 12 -2 16
18 7 14 35 -9 62 -17 21 -21 22 -37 9 -23 -20 -52 -12 -53 15 -1 12 -2 31 -3
41 -1 21 -21 33 -30 18 -3 -5 0 -26 6 -48 14 -52 17 -125 6 -147 -8 -16 -11
-15 -36 11 -15 15 -53 45 -84 66 l-57 38 -22 -21 c-26 -24 -59 -28 -59 -6 0 8
-7 15 -15 15 -13 0 -13 -3 -3 -20 7 -11 16 -20 20 -20 3 0 5 -18 3 -40 -2 -22
1 -40 7 -40 6 0 8 -7 4 -15 -3 -8 -1 -15 5 -15 6 0 7 -5 4 -11 -5 -7 -12 -5
-23 4 -10 8 -29 14 -44 12 -16 -2 -30 1 -34 6 -10 17 -42 9 -47 -12 -3 -12
-10 -18 -16 -14 -6 3 -11 2 -11 -4 0 -5 8 -14 17 -20 16 -9 16 -11 1 -28 -9
-10 -20 -30 -23 -45 -9 -34 -14 -34 -50 -6 -22 17 -31 19 -44 9 -9 -6 -24 -14
-34 -18 -13 -4 -15 -9 -6 -19 6 -8 18 -14 25 -14 8 0 14 -4 14 -10 0 -5 15
-14 33 -19 l32 -9 -43 -1 c-34 -1 -48 5 -74 29 -23 22 -37 29 -52 24 -20 -6
-20 -6 2 18 13 15 22 37 22 56 0 27 4 32 23 32 13 0 24 6 24 13 0 27 57 87 83
88 l25 1 -25 8 -25 8 28 1 c15 1 26 4 26 9 -6 33 8 59 58 108 31 31 58 62 59
69 1 8 14 26 28 42 14 15 26 32 26 38 0 5 13 36 30 68 16 31 25 55 19 52 -5
-4 -9 1 -9 9 0 9 -7 16 -16 16 -8 0 -12 5 -9 10 4 6 11 8 16 4 16 -10 -3 50
-20 63 -20 15 -41 17 -41 3 0 -5 -9 -10 -21 -10 -13 0 -19 5 -16 13 5 14 -25
47 -60 66 -13 6 -23 20 -23 30 0 10 -7 24 -15 31 -8 7 -15 8 -15 3 0 -5 -9 -9
-20 -10 -16 -1 -20 5 -21 30 l-2 32 -7 -35 -7 -35 -2 35 c-1 19 -4 49 -7 67
-2 17 3 44 11 60 10 19 15 22 15 11 0 -10 5 -18 11 -18 5 0 8 -4 5 -8 -7 -12
15 -82 26 -82 5 0 11 8 15 18 3 9 14 24 24 32 22 19 25 34 15 87 -6 36 -12 43
-37 48 -16 4 -29 12 -28 18 3 25 -1 37 -13 34 -7 -1 -13 4 -14 11 -1 6 -2 17
-3 22 0 6 -18 9 -38 9 l-38 -2 35 -7 c31 -7 32 -7 8 -9 -19 -1 -28 -7 -29 -18
-3 -51 5 -87 22 -104 27 -27 24 -49 -6 -49 -20 0 -25 5 -25 25 0 22 -3 24 -32
21 -18 -3 -35 -5 -38 -6 -15 -6 -36 -4 -47 3 -14 10 -35 -25 -27 -46 7 -20
-14 -33 -29 -18 -9 9 -8 14 2 21 12 7 12 12 3 23 -7 8 -15 43 -19 78 -7 58 -8
61 -14 29 -6 -32 -6 -32 -8 -7 0 16 4 37 9 48 9 16 7 19 -10 19 -15 0 -19 5
-16 23 3 12 5 30 5 39 1 11 6 15 16 12 10 -4 15 0 15 11 0 12 -5 15 -16 11
-12 -4 -15 -2 -11 9 4 8 2 17 -3 20 -4 3 -10 0 -12 -5 -2 -7 -18 -6 -46 4 -23
8 -42 12 -42 9 0 -3 -8 1 -17 9 -10 9 -29 19 -43 23 -14 3 -45 16 -70 28 -38
18 -64 21 -157 22 -84 0 -113 3 -113 13 0 6 -5 12 -11 12 -6 0 -8 9 -4 21 4
13 2 25 -5 29 -8 5 -7 9 4 13 10 4 16 1 16 -8 0 -9 6 -12 15 -9 8 4 15 15 15
26 0 10 5 16 10 13 6 -4 23 7 38 23 26 27 34 30 92 30 53 -1 68 -5 89 -24 14
-13 31 -24 38 -24 7 0 13 -4 13 -10 0 -5 11 -10 25 -10 14 0 25 -4 25 -10 0
-5 7 -7 15 -4 8 4 15 1 15 -5 0 -6 7 -11 15 -11 8 0 15 -4 15 -9 0 -5 9 -7 20
-4 24 6 23 5 8 38 -6 14 -17 25 -25 25 -7 0 -13 9 -13 20 0 11 -3 19 -7 19 -5
-1 -20 -1 -35 0 -23 1 -28 6 -29 29 0 24 -1 25 -9 7 -7 -17 -9 -14 -10 15 -1
19 -4 29 -7 23 -2 -7 -9 -13 -14 -13 -6 0 -7 5 -4 10 3 6 -1 10 -9 10 -9 0
-16 5 -16 12 0 6 -3 8 -6 5 -4 -4 -21 4 -38 16 -17 12 -32 21 -33 19 -2 -1
-11 -2 -20 -1 -15 0 -15 2 2 9 18 8 18 9 2 9 -10 1 -20 8 -23 16 -5 12 -10 13
-20 4 -7 -6 -19 -7 -26 -3 -29 18 -186 26 -253 13z m352 -95 c-3 -3 -12 -4
-19 -1 -8 3 -5 6 6 6 11 1 17 -2 13 -5z m-700 -156 c-3 -7 -5 -2 -5 12 0 14 2
19 5 13 2 -7 2 -19 0 -25z m-497 -177 c0 -6 -4 -13 -10 -16 -5 -3 -10 1 -10 9
0 9 5 16 10 16 6 0 10 -4 10 -9z m1258 -54 c3 -13 -4 -17 -27 -17 -17 0 -31 5
-31 10 0 6 7 10 15 10 8 0 15 5 15 11 0 17 25 4 28 -14z m2745 -54 c-7 -2 -19
-2 -25 0 -7 3 -2 5 12 5 14 0 19 -2 13 -5z m50 -33 c3 -11 1 -18 -4 -14 -5 3
-9 12 -9 20 0 20 7 17 13 -6z m-108 -20 c3 -5 1 -10 -4 -10 -6 0 -11 5 -11 10
0 6 2 10 4 10 3 0 8 -4 11 -10z m185 -37 c0 -5 -11 -9 -25 -9 -14 -1 -25 2
-25 7 0 5 11 9 25 9 14 0 25 -3 25 -7z m-2273 -55 c-3 -8 -6 -5 -6 6 -1 11 2
17 5 13 3 -3 4 -12 1 -19z m-976 -210 c27 -30 24 -38 -14 -38 -29 0 -33 3 -35
30 -3 37 21 41 49 8z m3657 -19 c-2 -6 -7 -10 -11 -10 -4 1 -16 1 -27 1 -11 0
-20 5 -20 10 0 6 14 10 31 10 17 0 29 -5 27 -11z m120 4 c-10 -2 -26 -2 -35 0
-10 3 -2 5 17 5 19 0 27 -2 18 -5z m-659 -22 c16 -10 6 -31 -15 -31 -8 0 -14
9 -14 20 0 22 7 25 29 11z m-159 -21 c0 -5 -4 -10 -10 -10 -5 0 -10 5 -10 10
0 6 5 10 10 10 6 0 10 -4 10 -10z m143 -100 c3 -11 1 -20 -4 -20 -5 0 -9 9 -9
20 0 11 2 20 4 20 2 0 6 -9 9 -20z m297 -76 c0 -2 -7 -4 -15 -4 -8 0 -15 4
-15 10 0 5 7 7 15 4 8 -4 15 -8 15 -10z m0 -28 c0 -3 -4 -8 -10 -11 -5 -3 -10
-1 -10 4 0 6 5 11 10 11 6 0 10 -2 10 -4z m125 -16 c3 -5 -3 -10 -14 -10 -12
0 -21 5 -21 10 0 6 6 10 14 10 8 0 18 -4 21 -10z m10 -30 c4 -6 -11 -10 -37
-9 -33 0 -38 2 -23 9 28 12 53 12 60 0z m265 -51 c0 -5 6 -8 13 -6 7 1 13 -10
15 -25 3 -25 8 -28 40 -29 33 -1 34 -2 12 -9 -28 -9 -27 -10 14 -15 44 -6 44
-15 0 -16 -34 -1 -36 -2 -14 -9 l25 -8 -27 -1 c-23 -1 -28 3 -28 24 0 29 -15
33 -28 8 -15 -25 -46 -9 -38 21 4 18 1 25 -15 29 -11 3 -22 0 -25 -7 -5 -14
-63 -20 -82 -8 -10 7 -10 11 3 22 12 10 15 10 15 -4 0 -24 17 -19 24 7 5 17 8
19 15 8 5 -8 11 -9 15 -3 3 5 -1 12 -9 16 -18 6 -20 27 -4 43 8 8 20 6 45 -9
19 -11 34 -24 34 -29z m-163 9 c-3 -8 -6 -5 -6 6 -1 11 2 17 5 13 3 -3 4 -12
1 -19z m1323 -18 c0 -29 -4 -40 -15 -40 -11 0 -15 11 -15 40 0 29 4 40 15 40
11 0 15 -11 15 -40z m17 -22 c-2 -13 -4 -3 -4 22 0 25 2 35 4 23 2 -13 2 -33
0 -45z m30 0 c-2 -13 -4 -3 -4 22 0 25 2 35 4 23 2 -13 2 -33 0 -45z m-5512
-28 c2 -12 1 -20 -2 -16 -4 4 -8 16 -10 28 -4 28 6 18 12 -12z m5270 20 c4 -6
12 -7 18 -4 7 4 1 -5 -12 -19 -20 -22 -22 -27 -8 -27 9 0 17 -5 17 -11 0 -6
-18 -9 -47 -6 -27 2 -47 7 -45 10 1 4 2 13 3 20 0 10 2 10 6 0 2 -7 13 -13 23
-13 10 0 18 6 17 13 -1 43 13 62 28 37z m-5138 -6 c-3 -3 -12 -4 -19 -1 -8 3
-5 6 6 6 11 1 17 -2 13 -5z m61 -21 c-16 -2 -28 -8 -28 -12 0 -5 12 -6 26 -3
19 3 25 1 20 -7 -5 -7 3 -11 23 -11 20 0 31 -5 31 -14 0 -9 7 -12 20 -9 16 4
19 2 14 -11 -4 -10 -18 -16 -40 -16 -24 0 -34 -5 -34 -15 0 -8 -7 -15 -15 -15
-8 0 -15 -4 -15 -9 0 -5 -18 -5 -42 1 -24 5 -70 7 -103 4 -34 -2 -67 0 -75 5
-12 8 -11 9 6 7 11 -2 22 1 22 7 1 5 -4 10 -11 11 -6 0 -20 2 -31 2 -15 2 -16
5 -6 17 7 8 19 15 26 15 8 0 14 4 14 9 0 5 9 11 20 14 13 3 18 10 14 21 -5 14
6 16 92 15 55 -1 87 -4 72 -6z m5306 -2 c10 -16 -21 -31 -62 -29 -30 1 -42 6
-45 20 -5 16 1 18 48 18 30 0 56 -4 59 -9z m-1267 -7 c-3 -3 -12 -4 -19 -1 -8
3 -5 6 6 6 11 1 17 -2 13 -5z m1083 2 c0 -11 -19 -15 -25 -6 -3 5 1 10 9 10 9
0 16 -2 16 -4z m-5057 -13 c-7 -2 -19 -2 -25 0 -7 3 -2 5 12 5 14 0 19 -2 13
-5z m5195 -30 c-10 -2 -28 -2 -40 0 -13 2 -5 4 17 4 22 1 32 -1 23 -4z m-1171
-9 c-3 -3 -12 -4 -19 -1 -8 3 -5 6 6 6 11 1 17 -2 13 -5z m359 -35 c43 -1 51
-3 30 -8 -16 -3 -49 -4 -73 -2 -36 2 -43 6 -43 25 1 20 2 20 14 4 10 -13 29
-18 72 -19z m-363 14 c-7 -2 -21 -2 -30 0 -10 3 -4 5 12 5 17 0 24 -2 18 -5z
m-6328 -43 c18 -8 18 -9 -5 -8 -14 0 -36 4 -50 8 -24 8 -24 8 5 8 17 0 39 -3
50 -8z m6359 -5 c3 -8 1 -15 -4 -15 -6 0 -10 7 -10 15 0 8 2 15 4 15 2 0 6 -7
10 -15z m-4211 -2 c-13 -2 -33 -2 -45 0 -13 2 -3 4 22 4 25 0 35 -2 23 -4z
m4534 1 c-3 -3 -12 -4 -19 -1 -8 3 -5 6 6 6 11 1 17 -2 13 -5z m1137 -45 c-2
-4 -13 -5 -24 -2 -11 3 -17 9 -14 14 3 5 10 7 15 4 5 -4 9 0 9 7 0 10 3 9 9
-2 6 -8 8 -17 5 -21z m-7869 11 c-3 -5 -13 -10 -21 -10 -8 0 -14 5 -14 10 0 6
9 10 21 10 11 0 17 -4 14 -10z m3772 -6 c-3 -3 -12 -4 -19 -1 -8 3 -5 6 6 6
11 1 17 -2 13 -5z m72 -8 c19 -22 -36 -48 -75 -36 -22 6 -24 9 -9 10 l20 1
-20 9 c-17 7 -14 9 13 9 19 1 31 5 27 11 -10 16 31 12 44 -4z m241 -71 c2 -5
-2 -21 -8 -35 -6 -14 -11 -20 -11 -13 -1 6 -11 15 -22 18 -17 6 -19 9 -8 16
11 6 11 11 1 21 -6 6 -12 22 -12 34 0 27 27 40 33 16 3 -12 5 -9 7 8 2 19 4
15 10 -15 4 -22 8 -44 10 -50z m3052 49 c-4 -21 -7 -23 -13 -11 -10 17 -1 50
11 42 4 -2 5 -16 2 -31z m85 4 c-3 -7 -5 -2 -5 12 0 14 2 19 5 13 2 -7 2 -19
0 -25z m-804 15 c-7 -2 -19 -2 -25 0 -7 3 -2 5 12 5 14 0 19 -2 13 -5z m554 1
c-3 -3 -12 -4 -19 -1 -8 3 -5 6 6 6 11 1 17 -2 13 -5z m190 -26 c-3 -7 -5 -2
-5 12 0 14 2 19 5 13 2 -7 2 -19 0 -25z m-597 12 c0 -5 -11 -10 -24 -10 -14 0
-28 5 -31 10 -4 6 7 10 24 10 17 0 31 -4 31 -10z m248 3 c-10 -2 -26 -2 -35 0
-10 3 -2 5 17 5 19 0 27 -2 18 -5z m1026 -19 c3 -8 10 -12 16 -9 5 3 10 -2 10
-11 0 -16 -2 -15 -22 3 -13 11 -30 23 -38 26 -10 4 -8 6 6 6 12 1 25 -6 28
-15z m-8251 -1 c-7 -2 -21 -2 -30 0 -10 3 -4 5 12 5 17 0 24 -2 18 -5z m2475
-21 c6 -18 -15 -14 -22 4 -4 10 -1 14 6 12 6 -2 14 -10 16 -16z m4505 11 c-7
-2 -21 -2 -30 0 -10 3 -4 5 12 5 17 0 24 -2 18 -5z m-2576 -60 c-3 -10 -5 -2
-5 17 0 19 2 27 5 18 2 -10 2 -26 0 -35z m-3459 4 c-5 -26 17 -55 25 -34 3 7
6 2 6 -10 1 -13 6 -23 12 -23 8 0 9 -23 6 -72 -3 -40 -6 -75 -6 -77 -1 -2 -8
2 -16 9 -13 11 -13 15 -3 21 7 5 -4 6 -25 2 -32 -5 -36 -3 -31 11 4 10 1 16
-7 16 -20 1 -52 48 -42 63 4 6 8 19 8 27 0 9 7 14 17 12 12 -2 19 6 24 25 10
46 13 53 25 53 6 0 9 -10 7 -23z m3327 -1 c12 -12 12 -15 -1 -20 -8 -3 -12 -2
-9 4 3 6 -1 10 -10 10 -9 0 -13 5 -10 10 8 13 14 13 30 -4z m-3300 -6 c3 -5 1
-10 -4 -10 -6 0 -11 5 -11 10 0 6 2 10 4 10 3 0 8 -4 11 -10z m-1732 -27 c-7
-2 -21 -2 -30 0 -10 3 -4 5 12 5 17 0 24 -2 18 -5z m5057 -3 c0 -5 -2 -10 -4
-10 -3 0 -8 5 -11 10 -3 6 -1 10 4 10 6 0 11 -4 11 -10z m-5120 -10 c-19 -13
-30 -13 -30 0 0 6 10 10 23 10 18 0 19 -2 7 -10z m4936 -21 c12 -20 -12 -32
-35 -17 -11 7 -21 16 -21 20 0 12 48 9 56 -3z m-4536 -19 c0 -5 -2 -10 -4 -10
-3 0 -8 5 -11 10 -3 6 -1 10 4 10 6 0 11 -4 11 -10z m1130 0 c0 -5 -2 -10 -4
-10 -3 0 -8 5 -11 10 -3 6 -1 10 4 10 6 0 11 -4 11 -10z m-53 -16 c-3 -3 -12
-4 -19 -1 -8 3 -5 6 6 6 11 1 17 -2 13 -5z m3560 -29 c1 -20 0 -23 -4 -7 -5
24 -19 29 -25 10 -3 -8 -10 -4 -17 10 -12 22 -11 23 16 20 23 -2 28 -8 30 -33z
m366 28 c-7 -2 -13 -17 -13 -31 1 -26 1 -27 16 -7 15 19 16 18 12 -18 -3 -26
0 -36 8 -33 12 5 25 -23 28 -61 2 -18 -1 -20 -17 -12 -10 6 -22 20 -27 32 -8
21 -9 21 -10 2 -1 -18 -2 -17 -11 4 -6 16 -6 29 3 40 7 9 8 13 4 9 -15 -13
-36 12 -36 42 0 32 7 40 34 39 12 0 15 -3 9 -6z m-4923 -7 c0 -2 -7 -6 -15
-10 -8 -3 -15 -1 -15 4 0 6 7 10 15 10 8 0 15 -2 15 -4z m4577 -28 c-3 -8 -6
-5 -6 6 -1 11 2 17 5 13 3 -3 4 -12 1 -19z m173 -13 c21 -25 1 -31 -22 -7 -18
18 -19 22 -6 22 8 0 21 -7 28 -15z m-4476 -28 c5 -27 -8 -39 -17 -14 -4 12 3
50 9 45 1 -2 5 -16 8 -31z m4056 29 c0 -3 -4 -8 -10 -11 -5 -3 -10 -1 -10 4 0
6 5 11 10 11 6 0 10 -2 10 -4z m-210 -16 c0 -5 -11 -10 -25 -10 -14 0 -25 5
-25 10 0 6 11 10 25 10 14 0 25 -4 25 -10z m937 -5 c19 -4 35 -15 39 -27 4
-15 9 -17 20 -7 11 9 14 8 14 -5 0 -9 5 -16 10 -16 19 0 10 -15 -15 -27 -23
-10 -26 -9 -31 13 -5 21 -10 23 -50 17 -39 -5 -44 -3 -53 18 -11 31 -4 50 17
45 10 -2 31 -7 49 -11z m2488 -5 c3 -5 -1 -10 -10 -10 -9 0 -13 5 -10 10 3 6
8 10 10 10 2 0 7 -4 10 -10z m-10065 -36 c0 -14 -4 -23 -10 -19 -5 3 -10 15
-10 26 0 10 5 19 10 19 6 0 10 -12 10 -26z m40 22 c0 -3 -4 -8 -10 -11 -5 -3
-10 -1 -10 4 0 6 5 11 10 11 6 0 10 -2 10 -4z m3857 -18 c-3 -8 -6 -5 -6 6 -1
11 2 17 5 13 3 -3 4 -12 1 -19z m2726 16 c5 -5 -13 -24 -60 -63 -7 -7 -13 -5
-17 5 -3 8 1 17 9 20 8 4 15 15 15 25 0 13 7 19 23 19 13 0 26 -3 30 -6z m107
-4 c0 -5 -4 -10 -10 -10 -5 0 -10 5 -10 10 0 6 5 10 10 10 6 0 10 -4 10 -10z
m554 -25 c-4 -8 -10 -15 -15 -15 -5 0 -9 7 -9 15 0 8 7 15 15 15 9 0 12 -6 9
-15z m96 1 c0 -11 -19 -15 -25 -6 -3 5 1 10 9 10 9 0 16 -2 16 -4z m-7442 -31
c11 -23 10 -25 -16 -24 -24 0 -25 1 -7 9 17 7 17 9 3 9 -10 1 -18 8 -18 16 0
24 26 17 38 -10z m3732 9 c0 -8 -4 -12 -10 -9 -5 3 -10 10 -10 16 0 5 5 9 10
9 6 0 10 -7 10 -16z m-3657 -29 c-5 -13 -23 -22 -23 -11 0 15 14 35 21 31 4
-3 6 -12 2 -20z m67 -10 c0 -8 -9 -15 -20 -15 -11 0 -20 7 -20 15 0 8 9 15 20
15 11 0 20 -7 20 -15z m6562 -5 c-12 -11 -26 -20 -32 -20 -6 0 -8 -4 -5 -10 4
-6 -7 -10 -24 -10 -17 0 -31 3 -31 6 0 14 31 34 54 34 14 0 26 5 26 10 0 6 8
10 17 10 14 0 14 -3 -5 -20z m-2902 0 c0 -5 -4 -10 -10 -10 -5 0 -10 5 -10 10
0 6 5 10 10 10 6 0 10 -4 10 -10z m3609 -22 c0 -22 -1 -22 -9 -3 -7 17 -9 17
-9 3 -1 -25 -21 -23 -21 2 0 13 7 20 20 20 14 0 20 -6 19 -22z m1079 15 c-10
-2 -28 -2 -40 0 -13 2 -5 4 17 4 22 1 32 -1 23 -4z m2235 0 c-13 -2 -33 -2
-45 0 -13 2 -3 4 22 4 25 0 35 -2 23 -4z m4 -19 c-3 -3 -12 -4 -19 -1 -8 3 -5
6 6 6 11 1 17 -2 13 -5z m-79 -34 c-7 -10 -14 -18 -15 -16 -6 6 9 36 18 36 5
0 4 -9 -3 -20z m-6751 4 c-3 -3 -12 -4 -19 -1 -8 3 -5 6 6 6 11 1 17 -2 13 -5z
m3486 -14 c-3 -11 -7 -20 -9 -20 -2 0 -4 9 -4 20 0 11 4 20 9 20 5 0 7 -9 4
-20z m-886 -32 c-3 -7 -5 -2 -5 12 0 14 2 19 5 13 2 -7 2 -19 0 -25z m27 17
c3 -8 1 -15 -4 -15 -6 0 -10 7 -10 15 0 8 2 15 4 15 2 0 6 -7 10 -15z m806
-15 c0 -5 -5 -10 -11 -10 -5 0 -7 5 -4 10 3 6 8 10 11 10 2 0 4 -4 4 -10z
m-3815 -10 c3 -5 1 -10 -4 -10 -6 0 -11 5 -11 10 0 6 2 10 4 10 3 0 8 -4 11
-10z m3895 0 c0 -5 -5 -10 -11 -10 -5 0 -7 5 -4 10 3 6 8 10 11 10 2 0 4 -4 4
-10z m-960 -10 c0 -5 -5 -10 -11 -10 -5 0 -7 5 -4 10 3 6 8 10 11 10 2 0 4 -4
4 -10z m1007 2 c7 -4 9 -13 4 -21 -6 -9 -11 -10 -15 -2 -4 6 -12 9 -17 6 -5
-4 -9 1 -9 9 0 17 17 21 37 8z m106 -32 c3 -12 0 -20 -8 -20 -8 0 -11 8 -8 20
3 11 7 20 8 20 1 0 5 -9 8 -20z m-1003 -4 c0 -14 -21 -26 -46 -26 -8 0 -14 5
-14 10 0 6 9 10 20 10 11 0 20 5 20 10 0 6 5 10 10 10 6 0 10 -6 10 -14z m-90
-35 c0 -4 -6 -16 -14 -26 -13 -18 -13 -17 -11 6 1 13 3 28 4 32 1 10 21 -1 21
-12z m1118 2 c-10 -2 -26 -2 -35 0 -10 3 -2 5 17 5 19 0 27 -2 18 -5z m107
-13 c-3 -5 -10 -10 -16 -10 -5 0 -9 5 -9 10 0 6 7 10 16 10 8 0 12 -4 9 -10z
m300 0 c18 -8 17 -9 -7 -9 -16 -1 -28 4 -28 9 0 12 8 12 35 0z m2625 0 c0 -5
15 -10 34 -10 25 0 38 -6 50 -25 9 -13 16 -26 16 -27 0 -7 -138 -2 -182 6 -56
10 -76 28 -56 50 15 18 138 23 138 6z m-10317 -18 c-6 -4 -13 -25 -15 -47 l-3
-40 -5 48 c-5 42 -3 47 15 47 13 0 16 -3 8 -8z m60 1 c-7 -2 -19 -2 -25 0 -7
3 -2 5 12 5 14 0 19 -2 13 -5z m9840 -19 c81 -6 105 -15 74 -27 -7 -3 -25 -3
-40 0 -22 4 -27 2 -27 -14 0 -11 -11 -26 -25 -33 -14 -7 -25 -20 -26 -29 0
-11 -2 -12 -6 -3 -2 6 -10 12 -16 12 -7 0 -18 9 -25 20 -7 12 -21 19 -35 17
-14 -1 -22 3 -22 13 0 8 -6 19 -12 23 -7 4 -13 14 -13 21 0 10 12 13 43 10 23
-2 81 -7 130 -10z m-3843 -14 c0 -5 -4 -10 -9 -10 -6 0 -13 5 -16 10 -3 6 1
10 9 10 9 0 16 -4 16 -10z m-5950 -41 c0 -5 -9 -9 -20 -9 -12 0 -20 -7 -20
-17 -1 -17 -2 -16 -15 1 -12 16 -17 17 -30 6 -13 -11 -15 -9 -15 15 0 22 4 26
20 22 11 -3 20 -1 20 3 0 5 14 4 30 -1 17 -6 30 -15 30 -20z m10380 17 c0 -11
-19 -15 -25 -6 -3 5 1 10 9 10 9 0 16 -2 16 -4z m-3593 -48 c-3 -7 -5 -2 -5
12 0 14 2 19 5 13 2 -7 2 -19 0 -25z m3553 15 c0 -2 -5 -13 -10 -24 -8 -13
-21 -19 -47 -19 -34 0 -36 2 -22 15 9 9 26 17 38 18 12 1 20 6 17 14 -3 7 1
10 10 6 7 -3 14 -7 14 -10z m-4563 -35 c-3 -8 -6 -5 -6 6 -1 11 2 17 5 13 3
-3 4 -12 1 -19z m4243 14 c0 -23 -49 -50 -100 -56 l-55 -6 35 17 c19 9 37 20
40 23 18 23 80 40 80 22z m206 -52 c8 0 12 -5 9 -10 -4 -6 -14 -10 -23 -8 -10
1 -23 -1 -29 -5 -7 -5 -13 -4 -13 1 0 14 -29 10 -34 -5 -3 -8 -21 -13 -44 -13
-27 0 -44 -6 -53 -19 -19 -26 -56 -36 -56 -15 0 21 110 74 154 74 19 0 33 5
34 13 0 10 2 10 6 0 7 -19 23 -16 24 5 1 16 2 16 6 0 2 -10 11 -18 19 -18z
m-561 -19 c-4 -17 -11 -29 -15 -26 -5 3 -6 13 -3 22 4 11 3 14 -5 9 -7 -4 -12
-2 -12 3 0 6 7 11 15 11 8 0 15 5 15 12 0 6 3 9 6 5 3 -3 3 -19 -1 -36z
m-3918 13 c-3 -3 -12 -4 -19 -1 -8 3 -5 6 6 6 11 1 17 -2 13 -5z m3883 -58 c0
-20 -17 -36 -38 -36 -25 0 -25 0 -6 19 17 18 44 28 44 17z m-9627 -23 c-7 -2
-19 -2 -25 0 -7 3 -2 5 12 5 14 0 19 -2 13 -5z m9847 -13 c0 -5 -2 -10 -4 -10
-3 0 -8 5 -11 10 -3 6 -1 10 4 10 6 0 11 -4 11 -10z m53 3 c-7 -2 -19 -2 -25
0 -7 3 -2 5 12 5 14 0 19 -2 13 -5z m-431 -49 c-19 -15 -52 -18 -52 -6 0 14 7
17 39 18 28 1 29 0 13 -12z m-432 -154 c0 -5 -5 -10 -11 -10 -5 0 -7 5 -4 10
3 6 8 10 11 10 2 0 4 -4 4 -10z m17 -12 c-3 -8 -6 -5 -6 6 -1 11 2 17 5 13 3
-3 4 -12 1 -19z m773 -8 c0 -5 -7 -10 -15 -10 -8 0 -15 -7 -15 -15 0 -8 6 -15
14 -15 9 0 16 -13 18 -32 l4 -33 10 34 c5 19 16 37 23 39 9 3 11 -2 6 -17 -7
-23 25 -61 52 -61 7 0 13 -4 13 -10 0 -5 7 -10 15 -10 8 0 15 -4 15 -9 0 -18
-12 -41 -22 -41 -6 0 -8 7 -4 15 4 11 -1 15 -18 15 -19 0 -23 -4 -20 -27 2
-16 1 -20 -2 -10 -3 9 -10 17 -15 17 -6 0 -7 5 -4 10 3 6 1 10 -4 10 -6 0 -10
5 -8 11 1 6 -3 13 -10 16 -7 3 -14 -13 -18 -41 -4 -25 -11 -46 -16 -46 -5 0
-9 -9 -9 -19 0 -14 -6 -19 -21 -18 -18 1 -18 3 -4 13 11 9 13 13 4 16 -7 2
-18 20 -25 39 -7 19 -13 26 -13 17 -1 -9 -11 -18 -23 -20 -17 -2 -24 -11 -26
-33 -5 -44 -45 -73 -91 -65 -20 3 -35 12 -33 18 4 22 4 27 2 52 -1 23 -2 23
-9 5 -7 -16 -10 -12 -15 22 -4 24 -12 45 -17 49 -5 3 -14 14 -19 25 -9 16 -7
21 12 29 21 8 21 9 3 10 -24 1 64 34 117 44 31 6 39 3 50 -14 9 -14 22 -20 48
-18 l35 1 -32 4 c-24 3 -31 9 -30 24 1 13 9 19 27 20 14 0 34 4 45 9 11 5 21
9 23 9 1 1 2 -3 2 -9z m-1657 -17 c-7 -2 -19 -2 -25 0 -7 3 -2 5 12 5 14 0 19
-2 13 -5z m-7698 -13 c3 -5 -1 -10 -10 -10 -9 0 -13 5 -10 10 3 6 8 10 10 10
2 0 7 -4 10 -10z m8585 0 c0 -5 0 -12 0 -15 0 -14 -13 -8 -16 8 -1 9 2 17 7
17 5 0 9 -4 9 -10z m39 -70 c0 -9 -4 -8 -9 5 -5 11 -9 27 -9 35 0 9 4 8 9 -5
5 -11 9 -27 9 -35z m-8072 -6 c13 -4 20 -11 16 -20 -3 -8 0 -14 7 -14 6 0 8
-4 5 -10 -3 -5 -1 -10 6 -10 7 0 10 -2 8 -4 -10 -11 -99 16 -99 30 0 8 -8 15
-17 15 -14 1 9 10 47 18 3 0 15 -2 27 -5z m8975 -66 c-9 -9 -12 -7 -12 12 0
19 3 21 12 12 9 -9 9 -15 0 -24z m-9172 12 c0 -5 -5 -10 -11 -10 -5 0 -7 5 -4
10 3 6 8 10 11 10 2 0 4 -4 4 -10z m-133 -6 c-3 -3 -12 -4 -19 -1 -8 3 -5 6 6
6 11 1 17 -2 13 -5z m262 -13 c8 -15 7 -20 -5 -25 -23 -9 -24 -8 -24 19 0 30
15 33 29 6z m33 -13 c-8 -8 -9 -4 -5 13 4 13 8 18 11 10 2 -7 -1 -18 -6 -23z
m6558 -8 c3 -1 -4 -5 -15 -9 -22 -9 -38 -4 -30 9 4 7 22 7 45 0z m2330 0 c0
-5 -5 -10 -11 -10 -5 0 -7 5 -4 10 3 6 8 10 11 10 2 0 4 -4 4 -10z m-2693
-112 c-3 -7 -5 -2 -5 12 0 14 2 19 5 13 2 -7 2 -19 0 -25z m2422 -23 c0 -5 -4
-3 -9 5 -5 8 -9 22 -9 30 0 16 17 -16 18 -35z m-27 -117 c3 -26 2 -45 -3 -42
-5 3 -9 26 -9 51 0 58 6 53 12 -9z m-8443 4 c0 15 6 30 12 33 13 8 49 -23 49
-42 0 -8 5 -11 10 -8 6 4 8 11 5 16 -4 5 -1 9 4 9 6 0 11 -7 11 -15 0 -11 11
-15 40 -15 38 0 39 -1 30 -24 -5 -13 -6 -33 -3 -44 3 -14 -1 -22 -16 -27 -12
-3 -21 -11 -21 -16 0 -6 -4 -7 -10 -4 -5 3 -10 -1 -10 -9 0 -19 -16 -21 -23
-3 -3 6 -6 0 -6 -15 -1 -19 4 -28 14 -28 15 0 20 -12 9 -23 -10 -9 -54 44 -55
67 -1 17 -2 18 -6 4 -5 -22 -23 -24 -23 -3 0 8 -7 15 -15 15 -18 0 -19 -12 -3
-28 9 -9 9 -12 0 -12 -13 0 -25 38 -20 66 2 11 12 22 23 26 l20 6 -20 1 c-18
1 -20 6 -16 58 4 53 5 55 12 23 5 -30 7 -31 8 -8z m5649 0 c9 -6 6 -11 -11
-19 -19 -9 -23 -8 -24 8 -2 20 13 24 35 11z m2313 -35 c-10 -9 -11 -8 -5 6 3
10 9 15 12 12 3 -3 0 -11 -7 -18z m479 -37 c12 -8 11 -10 -7 -10 -13 0 -23 5
-23 10 0 13 11 13 30 0z m-8960 -30 c0 -5 -2 -10 -4 -10 -3 0 -8 5 -11 10 -3
6 -1 10 4 10 6 0 11 -4 11 -10z m550 -80 c0 -5 -5 -10 -11 -10 -5 0 -7 5 -4
10 3 6 8 10 11 10 2 0 4 -4 4 -10z m30 -111 c0 -18 -2 -20 -15 -9 -13 11 -13
15 -3 21 18 12 18 12 18 -12z m7098 -89 c2 -5 10 -10 17 -10 8 0 31 -7 52 -16
67 -29 77 -32 148 -49 39 -9 88 -21 110 -26 22 -5 91 -16 154 -24 63 -8 122
-17 131 -20 9 -3 29 -28 44 -55 15 -27 35 -55 44 -62 28 -21 62 -97 62 -139 0
-38 -12 -51 -26 -28 -5 8 -9 8 -14 -1 -6 -9 -16 -6 -39 11 -17 12 -31 27 -31
31 0 5 -9 4 -19 -2 -26 -13 -31 -13 -31 5 0 15 -65 33 -77 21 -4 -3 2 -6 13
-6 16 0 19 -7 19 -48 0 -30 -4 -47 -12 -48 -7 -1 -18 -2 -25 -3 -9 -1 -9 -4
-1 -12 8 -8 7 -18 -3 -37 -12 -24 -12 -28 8 -38 13 -7 17 -14 10 -18 -6 -4 -9
-13 -6 -20 6 -15 -21 -46 -39 -46 -8 0 -7 -3 2 -9 22 -14 -26 -41 -62 -34 -46
9 -68 37 -68 86 0 23 -1 65 -1 92 0 28 -1 57 -1 65 0 8 2 34 6 58 5 29 4 41
-3 37 -6 -3 -10 3 -10 15 0 12 -4 19 -10 15 -5 -3 -6 -13 -3 -22 4 -11 3 -14
-5 -9 -7 4 -12 16 -12 27 0 11 -7 19 -16 19 -13 0 -14 3 -5 14 9 10 6 17 -13
30 -14 9 -31 16 -38 16 -9 0 -9 3 2 10 9 6 10 10 3 10 -7 0 -17 -8 -22 -17 -9
-16 -10 -15 -11 7 0 20 -2 22 -10 10 -6 -10 -10 -11 -10 -2 0 6 -7 12 -16 12
-8 0 -12 5 -9 10 3 6 2 10 -4 10 -6 0 -13 -11 -17 -24 -3 -13 -15 -26 -26 -29
-11 -3 -17 -10 -13 -16 4 -7 -9 -11 -36 -11 -40 0 -41 -1 -23 -14 18 -14 18
-15 -6 -12 -25 3 -101 -6 -170 -19 -19 -3 -39 -12 -45 -18 -5 -7 -23 -19 -38
-27 -25 -12 -26 -15 -10 -21 10 -4 13 -8 6 -8 -6 -1 -18 -4 -27 -7 -11 -4 -16
-1 -16 10 0 9 -8 16 -20 16 -13 0 -18 -5 -14 -15 4 -8 1 -15 -5 -15 -6 0 -11
9 -11 20 0 11 -4 20 -9 20 -5 0 -13 15 -17 33 -6 28 -8 29 -15 12 -7 -19 -8
-19 -8 3 -1 13 -5 20 -11 17 -5 -3 -10 1 -10 9 0 11 -10 16 -32 17 -33 0 -33
0 -8 11 24 11 24 11 -15 19 -63 12 -85 11 -79 -5 3 -9 -3 -17 -15 -21 -11 -3
-23 -15 -26 -26 -5 -15 -10 -17 -20 -9 -14 11 -25 -6 -25 -40 0 -17 -27 -36
-37 -26 -3 3 -6 26 -6 51 l-2 47 38 -6 c22 -4 37 -2 37 4 0 11 -9 13 -50 11
-16 0 -19 2 -10 6 8 3 21 15 29 25 13 19 13 19 28 -1 18 -26 49 -29 38 -3 -4
9 -10 29 -12 43 -4 24 -2 26 21 22 20 -4 25 -2 21 9 -7 18 26 56 43 51 7 -3
10 1 6 11 -4 12 0 16 15 16 12 0 21 5 21 10 0 6 7 10 15 10 8 0 15 4 15 10 0
14 67 40 101 40 16 0 29 4 29 9 0 21 241 22 248 1z m-7031 -10 c3 -10 2 -11
-4 -4 -4 6 -15 14 -23 17 -11 5 -9 6 4 4 11 -1 21 -9 23 -17z m-1 -58 c-9 -9
-21 -12 -33 -7 -16 7 -15 9 7 15 14 5 19 8 12 9 -7 1 -10 6 -7 11 5 8 11 7 21
-1 13 -11 13 -14 0 -27z m-59 -124 c-2 -13 -4 -3 -4 22 0 25 2 35 4 23 2 -13
2 -33 0 -45z m-24 28 c9 -23 -4 -56 -22 -57 -12 0 -11 -2 4 -9 17 -7 17 -9 3
-9 -10 -1 -18 -5 -18 -11 0 -5 7 -7 15 -4 8 4 15 1 15 -6 0 -8 -11 -11 -30 -8
-28 4 -29 3 -32 -36 -2 -33 -7 -40 -20 -38 -11 2 -18 -3 -18 -12 0 -8 -4 -16
-9 -18 -6 -1 -11 -22 -12 -45 -2 -28 -8 -43 -16 -43 -17 0 -17 -17 0 -23 7 -3
4 -6 -6 -6 -10 -1 -15 -5 -12 -11 3 -5 2 -18 -4 -27 -9 -16 -11 -16 -19 6 -9
24 -9 24 -16 -10 -4 -19 -8 -72 -11 -117 -4 -87 -16 -111 -57 -112 -10 0 -18
-4 -18 -10 0 -5 -9 -10 -19 -10 -17 0 -19 6 -17 53 4 77 23 133 59 174 18 20
26 34 20 29 -7 -4 -13 -3 -13 2 0 6 7 12 15 16 8 3 15 15 15 26 0 11 4 20 9
20 5 0 16 24 26 53 9 28 22 57 30 62 7 6 18 30 24 53 7 25 22 49 37 59 14 9
23 22 20 29 -3 9 4 16 19 20 13 3 26 12 29 20 7 18 22 18 29 0z m6564 -38 c-3
-7 -5 -2 -5 12 0 14 2 19 5 13 2 -7 2 -19 0 -25z m-100 -138 c-5 -23 -3 -30 9
-30 11 0 14 -10 11 -45 -2 -25 -7 -48 -10 -52 -4 -3 -2 -14 4 -25 6 -11 8 -22
5 -26 -3 -3 -6 0 -6 6 0 7 -5 12 -11 12 -5 0 -7 -4 -4 -10 3 -5 -1 -26 -11
-45 -9 -19 -14 -47 -11 -61 3 -20 -1 -28 -20 -37 -17 -8 -20 -13 -11 -19 10
-6 10 -8 -2 -8 -10 0 -11 -3 -4 -8 19 -12 -7 -76 -32 -80 -17 -2 -23 4 -31 37
-7 27 -7 43 0 50 8 8 7 11 -3 12 -10 0 -7 4 5 9 17 7 14 9 -15 11 l-35 2 35 7
c19 4 28 8 18 9 -11 1 -15 7 -11 22 3 12 0 25 -7 29 -9 6 -7 10 8 14 15 5 22
19 28 59 l8 52 7 -40 6 -40 2 48 c0 28 7 55 16 63 8 9 15 32 16 52 0 30 2 33
9 17 8 -19 9 -19 9 3 1 13 5 20 11 17 6 -3 10 1 10 9 0 9 3 16 6 16 4 0 4 -13
1 -30z m-67 -450 c-10 -6 -11 -10 -2 -10 19 0 14 -20 -5 -21 -12 -1 -10 -4 7
-9 22 -7 21 -8 -12 -9 -31 -1 -37 2 -35 19 1 11 6 20 12 20 5 0 3 5 -5 10 -11
7 -6 10 20 10 26 0 31 -3 20 -10z m-6340 -255 c-7 -8 -24 -14 -39 -14 -25 2
-26 2 -2 6 19 4 21 7 10 14 -10 6 -6 9 15 9 24 0 27 -2 16 -15z m-15 -36 c15
-7 12 -8 -12 -3 -28 5 -33 3 -33 -15 0 -11 -4 -23 -10 -26 -5 -3 -10 -15 -10
-26 0 -10 5 -19 10 -19 6 0 10 -4 10 -10 0 -5 -7 -10 -15 -10 -8 0 -15 -4 -15
-10 0 -13 6 -13 31 1 11 5 17 14 14 20 -4 5 8 9 26 9 18 0 29 -3 26 -7 -4 -3
-2 -12 4 -20 10 -11 15 -11 27 -1 13 11 14 10 9 -2 -4 -8 -9 -22 -13 -30 -6
-18 -53 -42 -66 -33 -13 7 1 -40 14 -48 6 -4 5 -15 -3 -30 -12 -23 -12 -23
-20 -4 -8 20 -8 20 -10 0 -1 -11 -1 -30 0 -42 1 -13 -3 -23 -9 -23 -5 0 -10
14 -10 31 0 16 -4 28 -9 24 -20 -12 -21 15 -1 35 l20 20 -22 0 c-21 1 -21 2
-6 13 12 9 14 17 7 30 -8 13 -6 17 8 17 15 0 16 2 3 10 -8 5 -25 10 -38 10
-13 0 -20 4 -17 10 3 6 4 10 1 10 -2 0 -11 3 -20 6 -11 4 -16 1 -16 -10 0 -18
-15 -22 -25 -6 -10 17 5 52 21 46 9 -3 14 1 14 13 0 10 7 21 15 25 8 3 15 12
15 21 0 8 5 15 10 15 6 0 10 -5 10 -12 0 -7 10 -2 22 10 24 24 33 25 63 11z
m891 -65 c-5 -13 -2 -15 16 -11 20 5 21 5 6 -7 -11 -8 -14 -17 -8 -26 7 -12
12 -12 22 -2 19 19 36 14 52 -15 8 -16 15 -22 16 -14 0 28 10 3 21 -52 5 -32
7 -63 2 -70 -4 -6 -8 -16 -9 -22 -4 -36 -8 -36 -20 0 l-14 40 3 -62 c3 -57 1
-63 -17 -63 -20 0 -20 0 0 -15 11 -8 14 -15 7 -15 -7 0 -12 -6 -10 -12 1 -9
-9 -12 -31 -11 -26 1 -32 -2 -29 -15 2 -10 9 -16 15 -15 7 2 12 -6 12 -17 0
-11 -7 -20 -15 -20 -8 0 -15 -4 -15 -10 0 -5 -8 -18 -18 -28 -18 -18 -19 -17
-30 6 -6 13 -8 30 -5 39 5 13 3 13 -14 4 -24 -12 -31 2 -40 74 -5 47 -20 67
-33 45 -7 -10 -10 5 -11 50 -1 55 -3 60 -9 30 l-7 -35 -2 35 c-2 19 -5 29 -8
23 -2 -7 -14 -13 -26 -12 -21 0 -21 1 -2 9 19 8 19 9 -2 9 -15 1 -24 -8 -32
-30 -6 -17 -8 -35 -5 -40 3 -5 1 -9 -4 -9 -5 0 -15 -18 -22 -40 -8 -23 -19
-44 -26 -48 -8 -4 -17 -38 -21 -82 -7 -69 -8 -72 -14 -35 l-6 40 -2 -37 c0
-20 3 -40 9 -43 10 -6 9 -75 -1 -75 -3 0 -5 -12 -3 -26 1 -16 -4 -28 -14 -32
-14 -5 -12 -7 8 -13 l25 -7 -27 -1 c-16 -1 -28 -5 -28 -9 0 -11 -84 -33 -88
-22 -2 4 -19 3 -39 -3 -28 -9 -37 -9 -41 1 -2 7 -11 12 -19 12 -9 0 -21 7 -27
15 -6 8 -31 19 -56 24 -25 5 -36 9 -25 10 15 1 17 3 7 10 -8 4 -13 10 -12 12
1 2 -1 11 -4 19 -19 56 -24 90 -13 97 6 3 13 1 15 -5 2 -7 11 -12 20 -11 11 0
12 2 5 6 -7 2 -13 9 -13 15 0 6 7 7 15 4 20 -7 32 21 16 37 -8 8 -11 7 -11 -6
0 -9 -4 -17 -10 -17 -5 0 -10 6 -10 14 0 8 -6 16 -14 19 -9 4 -12 14 -9 28 6
22 7 22 14 3 7 -18 8 -18 8 3 1 18 6 21 26 17 24 -4 24 -3 13 16 -12 19 -10
24 17 46 17 13 36 24 43 24 6 0 12 9 12 20 0 11 5 20 10 20 6 0 10 -4 10 -10
0 -14 28 -12 33 3 3 9 7 9 20 -2 10 -7 17 -10 17 -6 0 4 -8 14 -17 21 -17 13
-17 14 5 20 12 3 22 10 22 14 0 5 10 12 23 16 21 7 21 8 -8 21 -27 12 -27 13
-4 9 17 -4 30 1 42 14 9 11 27 20 40 20 23 0 67 40 67 61 0 5 5 7 10 4 6 -4 8
-11 5 -16 -4 -5 -2 -9 4 -9 5 0 12 6 14 13 3 7 6 6 6 -5 1 -11 -9 -18 -26 -21
l-28 -4 24 -8 c23 -8 23 -9 6 -22 -11 -7 -17 -13 -14 -14 2 0 22 -2 45 -3 40
-3 40 -2 50 41 9 37 8 46 -8 63 -11 11 -23 18 -29 15 -5 -4 -9 0 -9 7 0 9 14
12 51 9 32 -2 49 1 45 7 -3 5 2 9 11 8 10 0 18 5 19 12 1 6 2 14 3 17 0 3 26
5 57 5 48 0 55 -2 50 -16z m-866 -3 c0 -5 -16 -11 -35 -13 -20 -2 -35 0 -35 7
0 5 16 11 35 12 19 2 35 -1 35 -6z m153 -68 c-7 -2 -19 -2 -25 0 -7 3 -2 5 12
5 14 0 19 -2 13 -5z m507 -63 c0 -5 -5 -10 -11 -10 -5 0 -7 5 -4 10 3 6 8 10
11 10 2 0 4 -4 4 -10z m-353 -126 c-3 -3 -12 -4 -19 -1 -8 3 -5 6 6 6 11 1 17
-2 13 -5z m578 -213 c7 -12 -12 -24 -25 -16 -11 7 -4 25 10 25 5 0 11 -4 15
-9z m-360 -220 c3 -5 1 -12 -5 -16 -5 -3 -10 1 -10 9 0 18 6 21 15 7z m-95
-61 c0 -5 -4 -10 -10 -10 -5 0 -10 5 -10 10 0 6 5 10 10 10 6 0 10 -4 10 -10z"/>
<path d="M6578 4183 c12 -2 32 -2 45 0 12 2 2 4 -23 4 -25 0 -35 -2 -22 -4z"/>
<path d="M6544 4101 c5 -8 56 -3 56 5 0 2 -14 4 -31 4 -16 0 -28 -4 -25 -9z"/>
<path d="M6618 4093 c7 -3 16 -2 19 1 4 3 -2 6 -13 5 -11 0 -14 -3 -6 -6z"/>
<path d="M2710 2401 c0 -5 5 -13 10 -16 6 -3 10 -2 10 4 0 5 -4 13 -10 16 -5
3 -10 2 -10 -4z"/>
<path d="M3428 863 c6 -2 18 -2 25 0 6 3 1 5 -13 5 -14 0 -19 -2 -12 -5z"/>
<path d="M3625 860 c-4 -6 7 -10 27 -10 25 0 29 3 18 10 -19 13 -37 13 -45 0z"/>
<path d="M3665 831 c-3 -5 -1 -12 5 -16 5 -3 10 1 10 9 0 18 -6 21 -15 7z"/>
<path d="M3623 725 c0 -22 2 -30 4 -17 2 12 2 30 0 40 -3 9 -5 -1 -4 -23z"/>
<path d="M3281 624 c0 -11 3 -14 6 -6 3 7 2 16 -1 19 -3 4 -6 -2 -5 -13z"/>
<path d="M8945 5400 c3 -5 13 -10 21 -10 8 0 14 5 14 10 0 6 -9 10 -21 10 -11
0 -17 -4 -14 -10z"/>
<path d="M7455 5350 c-3 -5 -1 -10 4 -10 6 0 11 5 11 10 0 6 -2 10 -4 10 -3 0
-8 -4 -11 -10z"/>
<path d="M10270 5015 c0 -9 9 -15 21 -15 18 0 19 2 5 15 -8 8 -17 15 -20 15
-3 0 -6 -7 -6 -15z"/>
<path d="M10360 4995 c0 -9 -9 -15 -25 -15 -14 0 -25 -4 -25 -10 0 -14 49 -12
64 3 13 13 10 37 -5 37 -5 0 -9 -7 -9 -15z"/>
<path d="M10208 4923 c7 -3 16 -2 19 1 4 3 -2 6 -13 5 -11 0 -14 -3 -6 -6z"/>
<path d="M10315 4860 c3 -5 8 -10 11 -10 2 0 4 5 4 10 0 6 -5 10 -11 10 -5 0
-7 -4 -4 -10z"/>
<path d="M10930 4830 c0 -5 5 -10 10 -10 6 0 10 5 10 10 0 6 -4 10 -10 10 -5
0 -10 -4 -10 -10z"/>
<path d="M11310 4780 c0 -5 5 -10 11 -10 5 0 7 5 4 10 -3 6 -8 10 -11 10 -2 0
-4 -4 -4 -10z"/>
<path d="M11498 4689 c-8 -6 1 -9 25 -9 20 0 37 2 37 4 0 9 -50 12 -62 5z"/>
<path d="M10988 4683 c7 -3 16 -2 19 1 4 3 -2 6 -13 5 -11 0 -14 -3 -6 -6z"/>
<path d="M11208 4683 c7 -3 16 -2 19 1 4 3 -2 6 -13 5 -11 0 -14 -3 -6 -6z"/>
<path d="M11600 4610 c-12 -7 -12 -12 4 -28 9 -11 13 -23 8 -26 -11 -7 -8 -76
4 -76 15 -1 17 42 2 51 -10 7 -10 9 0 9 6 0 12 9 12 20 0 11 5 20 10 20 6 0
10 5 10 10 0 6 -10 10 -22 10 -19 0 -20 2 -8 10 8 5 11 10 5 10 -5 0 -17 -4
-25 -10z"/>
<path d="M11210 4580 c-7 -5 -8 -15 -1 -33 9 -23 16 -27 51 -27 37 0 40 2 26
15 -8 9 -13 22 -10 29 6 15 -47 28 -66 16z"/>
<path d="M11120 4560 c0 -11 4 -20 9 -20 5 0 11 9 14 20 3 13 0 20 -9 20 -8 0
-14 -9 -14 -20z"/>
<path d="M11570 4565 c0 -8 5 -15 10 -15 6 0 10 7 10 15 0 8 -4 15 -10 15 -5
0 -10 -7 -10 -15z"/>
<path d="M10800 4535 c0 -19 5 -25 23 -25 18 0 19 2 7 10 -12 8 -12 10 -1 10
11 0 11 3 1 15 -18 22 -30 18 -30 -10z"/>
<path d="M11511 4501 c-8 -5 -9 -11 -3 -15 5 -3 15 1 22 9 14 16 3 20 -19 6z"/>
<path d="M4355 4479 c-11 -16 23 -21 45 -6 19 13 19 14 -10 15 -16 0 -32 -4
-35 -9z"/>
<path d="M4329 4418 c-1 -7 -1 -20 0 -28 1 -11 -2 -9 -10 4 -9 15 -13 16 -20
5 -13 -22 -11 -61 4 -56 6 2 11 10 9 17 -2 11 0 11 11 1 12 -9 16 -7 20 11 2
13 8 31 12 41 5 12 3 17 -9 17 -9 0 -17 -6 -17 -12z"/>
<path d="M12088 4388 c5 -5 16 -8 23 -6 8 3 3 7 -10 11 -17 4 -21 3 -13 -5z"/>
<path d="M3820 4379 c0 -5 5 -7 10 -4 6 3 10 8 10 11 0 2 -4 4 -10 4 -5 0 -10
-5 -10 -11z"/>
<path d="M11343 4375 c-7 -8 -13 -18 -13 -23 0 -6 -9 -12 -20 -15 -25 -6 -37
-35 -21 -50 10 -9 15 -8 25 5 12 16 14 16 29 0 16 -15 17 -15 17 2 0 10 10 26
21 35 16 12 20 23 15 39 -8 25 -35 28 -53 7z"/>
<path d="M11998 4373 c7 -3 16 -2 19 1 4 3 -2 6 -13 5 -11 0 -14 -3 -6 -6z"/>
<path d="M12008 4353 c6 -2 18 -2 25 0 6 3 1 5 -13 5 -14 0 -19 -2 -12 -5z"/>
<path d="M11257 4334 c-4 -4 -7 -14 -7 -23 0 -11 3 -12 11 -4 6 6 10 16 7 23
-2 6 -7 8 -11 4z"/>
<path d="M12162 4315 c1 -14 6 -25 10 -25 4 0 8 11 8 25 0 14 -4 25 -10 25 -5
0 -9 -11 -8 -25z"/>
<path d="M4230 4326 c0 -2 11 -6 25 -8 14 -3 25 -1 25 3 0 5 -11 9 -25 9 -14
0 -25 -2 -25 -4z"/>
<path d="M12000 4319 c0 -5 5 -7 10 -4 6 3 10 8 10 11 0 2 -4 4 -10 4 -5 0
-10 -5 -10 -11z"/>
<path d="M11325 4280 c3 -5 8 -10 11 -10 2 0 4 5 4 10 0 6 -5 10 -11 10 -5 0
-7 -4 -4 -10z"/>
<path d="M12270 4260 c0 -5 7 -10 15 -10 8 0 15 5 15 10 0 6 -7 10 -15 10 -8
0 -15 -4 -15 -10z"/>
<path d="M11507 4233 c-3 -5 -1 -17 4 -28 7 -17 8 -17 8 8 1 27 -4 34 -12 20z"/>
<path d="M8442 4197 c-7 -8 -6 -18 4 -31 13 -19 14 -18 14 12 0 35 -3 38 -18
19z"/>
<path d="M8328 4193 c7 -3 16 -2 19 1 4 3 -2 6 -13 5 -11 0 -14 -3 -6 -6z"/>
<path d="M8570 4192 c0 -6 -3 -18 -6 -27 -5 -13 -2 -16 12 -13 21 4 26 39 7
46 -7 2 -13 -1 -13 -6z"/>
<path d="M4450 4140 c0 -5 5 -10 10 -10 6 0 10 5 10 10 0 6 -4 10 -10 10 -5 0
-10 -4 -10 -10z"/>
<path d="M4310 4129 c0 -5 9 -9 20 -9 11 0 20 2 20 4 0 2 -9 6 -20 9 -11 3
-20 1 -20 -4z"/>
<path d="M4378 4123 c7 -3 16 -2 19 1 4 3 -2 6 -13 5 -11 0 -14 -3 -6 -6z"/>
<path d="M8291 4116 c-14 -17 -7 -36 15 -36 15 0 18 18 5 38 -6 10 -10 10 -20
-2z"/>
<path d="M8650 4110 c0 -11 4 -20 9 -20 5 0 12 -11 15 -25 4 -16 13 -25 26
-25 30 0 33 18 6 35 -14 9 -28 25 -31 36 -8 25 -25 24 -25 -1z"/>
<path d="M8572 4083 c2 -27 8 -39 21 -41 20 -4 23 27 7 59 -17 31 -31 22 -28
-18z"/>
<path d="M8540 3990 c0 -11 5 -20 10 -20 6 0 10 9 10 20 0 11 -4 20 -10 20 -5
0 -10 -9 -10 -20z"/>
<path d="M8638 4003 c7 -3 16 -2 19 1 4 3 -2 6 -13 5 -11 0 -14 -3 -6 -6z"/>
<path d="M8564 3969 c-3 -6 -1 -16 5 -22 8 -8 11 -8 11 1 0 7 8 12 18 12 14 0
15 2 2 10 -20 13 -27 12 -36 -1z"/>
<path d="M3106 3939 c-19 -19 -19 -19 30 -18 27 0 42 3 34 6 -8 3 -19 12 -23
19 -10 18 -18 17 -41 -7z"/>
<path d="M8590 3930 c0 -5 5 -10 10 -10 6 0 10 5 10 10 0 6 -4 10 -10 10 -5 0
-10 -4 -10 -10z"/>
<path d="M735 3870 c17 -7 17 -9 3 -9 -10 -1 -18 -5 -18 -11 0 -5 23 -10 50
-10 28 0 50 4 50 10 0 5 -13 7 -29 4 -20 -4 -30 -2 -34 10 -4 9 -14 16 -24 15
-16 0 -16 -1 2 -9z"/>
<path d="M778 3873 c7 -3 16 -2 19 1 4 3 -2 6 -13 5 -11 0 -14 -3 -6 -6z"/>
<path d="M3768 3873 c6 -2 18 -2 25 0 6 3 1 5 -13 5 -14 0 -19 -2 -12 -5z"/>
<path d="M7897 3865 c-4 -8 -2 -17 3 -20 6 -4 10 3 10 14 0 25 -6 27 -13 6z"/>
<path d="M8692 3849 c-8 -21 -6 -24 15 -27 28 -4 30 -3 35 18 1 9 -1 16 -7 17
-5 0 -9 -4 -7 -10 1 -7 -4 -3 -13 7 -14 19 -15 18 -23 -5z"/>
<path d="M8820 3850 c0 -5 5 -10 10 -10 6 0 10 5 10 10 0 6 -4 10 -10 10 -5 0
-10 -4 -10 -10z"/>
<path d="M1418 3833 c7 -3 16 -2 19 1 4 3 -2 6 -13 5 -11 0 -14 -3 -6 -6z"/>
<path d="M8825 3810 c3 -5 8 -10 11 -10 2 0 4 5 4 10 0 6 -5 10 -11 10 -5 0
-7 -4 -4 -10z"/>
<path d="M1048 3583 c6 -2 18 -2 25 0 6 3 1 5 -13 5 -14 0 -19 -2 -12 -5z"/>
<path d="M1205 3550 c-3 -5 -1 -10 4 -10 6 0 11 5 11 10 0 6 -2 10 -4 10 -3 0
-8 -4 -11 -10z"/>
<path d="M10269 3361 c-1 -11 -3 -25 -4 -31 -1 -5 -3 -16 -4 -22 -1 -9 -4 -8
-11 2 -7 11 -10 6 -10 -22 0 -20 6 -39 13 -41 9 -4 8 -8 -3 -16 -9 -7 -11 -11
-3 -11 7 0 15 -17 18 -37 7 -43 22 -80 44 -105 13 -16 12 -18 -11 -18 -30 0
-40 -19 -31 -61 4 -22 8 -27 14 -17 7 10 9 10 9 1 0 -7 6 -13 14 -13 8 0 16
-3 19 -7 2 -5 2 -1 -1 7 -9 33 -7 83 4 87 17 6 9 78 -15 148 -13 37 -20 79
-18 108 2 30 -2 52 -10 59 -10 8 -13 5 -14 -11z"/>
<path d="M9355 3310 c-3 -5 -1 -18 4 -28 6 -11 7 -22 4 -26 -3 -3 7 -6 23 -5
25 0 26 2 9 9 -17 7 -17 9 -2 9 12 1 17 9 16 29 -1 16 -3 20 -6 10 -5 -22 -23
-24 -23 -3 0 17 -16 20 -25 5z"/>
<path d="M9435 3310 c3 -5 8 -10 11 -10 2 0 4 5 4 10 0 6 -5 10 -11 10 -5 0
-7 -4 -4 -10z"/>
<path d="M8920 2954 c0 -32 65 -40 94 -11 25 25 20 28 -39 25 -33 -2 -55 -8
-55 -14z"/>
<path d="M1685 2910 c3 -5 10 -10 16 -10 5 0 9 5 9 10 0 6 -7 10 -16 10 -8 0
-12 -4 -9 -10z"/>
<path d="M1785 2870 c-3 -5 3 -10 14 -10 11 0 23 5 26 10 3 6 -3 10 -14 10
-11 0 -23 -4 -26 -10z"/>
<path d="M8927 2843 c-14 -13 -6 -33 13 -33 11 0 20 4 20 9 0 13 -26 32 -33
24z"/>
<path d="M8637 2789 c7 -7 15 -10 18 -7 3 3 -2 9 -12 12 -14 6 -15 5 -6 -5z"/>
<path d="M8870 2790 c0 -5 7 -10 15 -10 8 0 15 5 15 10 0 6 -7 10 -15 10 -8 0
-15 -4 -15 -10z"/>
<path d="M8588 2773 c6 -2 18 -2 25 0 6 3 1 5 -13 5 -14 0 -19 -2 -12 -5z"/>
<path d="M10264 2746 c-3 -9 -4 -23 0 -31 5 -14 10 -14 43 0 59 25 58 32 -1
42 -27 4 -37 2 -42 -11z"/>
<path d="M8506 2741 c-4 -7 -5 -15 -2 -18 9 -9 19 4 14 18 -4 11 -6 11 -12 0z"/>
<path d="M10360 2730 c0 -19 3 -21 12 -12 9 9 9 15 0 24 -9 9 -12 7 -12 -12z"/>
<path d="M1938 2683 c7 -3 16 -2 19 1 4 3 -2 6 -13 5 -11 0 -14 -3 -6 -6z"/>
<path d="M8400 2646 c0 -9 30 -14 35 -6 4 6 -3 10 -14 10 -12 0 -21 -2 -21 -4z"/>
<path d="M1970 2600 c0 -5 5 -10 10 -10 6 0 10 5 10 10 0 6 -4 10 -10 10 -5 0
-10 -4 -10 -10z"/>
<path d="M1962 2240 c0 -19 2 -27 5 -17 2 9 2 25 0 35 -3 9 -5 1 -5 -18z"/>
<path d="M1963 2085 c0 -22 2 -30 4 -17 2 12 2 30 0 40 -3 9 -5 -1 -4 -23z"/>
</g>
</svg>
