<?xml version="1.0" standalone="no"?>
<!DOCTYPE svg PUBLIC "-//W3C//DTD SVG 20010904//EN"
 "http://www.w3.org/TR/2001/REC-SVG-20010904/DTD/svg10.dtd">
<svg version="1.0" xmlns="http://www.w3.org/2000/svg"
 width="512.000000pt" height="512.000000pt" viewBox="0 0 512.000000 512.000000"
 preserveAspectRatio="xMidYMid meet">

<g transform="translate(0.000000,512.000000) scale(0.100000,-0.100000)"
fill="#000000" stroke="none">
<path d="M1885 5088 c-7 -18 -24 -64 -36 -102 l-24 -69 -93 -44 c-72 -33 -93
-47 -90 -61 2 -10 38 -35 93 -62 l90 -45 30 -85 c16 -47 34 -91 38 -97 17 -27
36 -11 56 45 58 157 44 139 142 184 119 54 119 66 -1 121 l-89 41 -32 91 c-45
127 -59 141 -84 83z"/>
<path d="M3475 4896 c-334 -64 -587 -198 -865 -461 -281 -265 -455 -352 -827
-415 -95 -16 -214 -42 -265 -56 -306 -88 -557 -241 -783 -475 -330 -343 -496
-758 -496 -1239 -1 -423 136 -814 398 -1140 37 -47 89 -112 115 -146 145 -189
469 -504 622 -605 109 -73 338 -186 459 -228 417 -145 854 -165 1251 -57 373
103 694 322 918 628 169 230 252 436 308 766 60 349 142 514 384 771 135 143
211 247 281 388 221 442 185 982 -94 1433 -51 82 -353 463 -435 549 -119 124
-279 217 -456 267 -82 23 -119 27 -270 30 -119 2 -197 -1 -245 -10z m465 -216
c331 -94 541 -347 582 -703 26 -222 -41 -506 -173 -731 -65 -111 -144 -212
-259 -331 -277 -287 -387 -512 -455 -930 -44 -265 -121 -469 -254 -667 -370
-553 -1054 -812 -1707 -648 -295 74 -542 216 -764 440 -129 129 -221 257 -299
415 -72 145 -100 224 -137 380 -27 113 -28 133 -28 345 0 248 11 322 74 512
154 459 530 835 986 987 92 31 213 57 394 86 202 33 405 113 580 229 54 36
155 120 230 192 138 131 228 202 336 267 131 79 301 143 453 172 111 21 342
13 441 -15z m855 -884 c161 -353 162 -734 5 -1063 -67 -141 -131 -230 -275
-383 -254 -270 -367 -504 -415 -859 -66 -484 -373 -909 -804 -1116 -221 -105
-422 -153 -681 -162 -256 -9 -477 24 -709 103 -99 34 -372 162 -363 170 2 2
39 -5 83 -15 161 -39 227 -46 434 -46 154 1 230 5 305 19 364 66 687 232 943
485 294 290 462 633 522 1066 31 218 107 414 228 585 26 36 97 118 159 183
319 335 477 663 500 1040 7 123 9 123 68 -7z"/>
<path d="M3578 4490 c-223 -35 -501 -201 -807 -484 -115 -106 -185 -155 -305
-211 -124 -58 -192 -80 -390 -126 -282 -65 -507 -150 -703 -265 -318 -187
-537 -483 -631 -851 -25 -101 -27 -121 -26 -318 0 -203 1 -214 31 -325 107
-395 349 -698 699 -874 339 -171 760 -185 1111 -36 330 141 580 386 760 744
96 191 143 325 194 551 52 233 110 384 192 505 17 25 88 104 157 175 145 150
216 237 300 367 166 257 205 514 109 726 -81 181 -263 348 -434 401 -75 23
-183 32 -257 21z m290 -166 c52 -25 96 -58 151 -112 202 -200 235 -425 101
-693 -77 -154 -176 -285 -360 -474 -127 -131 -175 -193 -229 -299 -53 -105
-92 -224 -140 -431 -49 -209 -84 -311 -167 -485 -116 -241 -248 -412 -418
-544 -150 -117 -292 -188 -465 -233 -129 -34 -361 -43 -501 -19 -589 103
-1010 605 -1010 1206 0 330 128 637 364 876 188 190 519 348 908 435 186 41
322 86 439 144 127 64 191 109 301 212 441 411 768 545 1026 417z"/>
<path d="M3526 4146 c-152 -67 -273 -150 -578 -393 -214 -171 -238 -194 -238
-227 0 -61 46 -106 109 -106 34 0 103 47 276 189 249 205 402 309 526 357 82
32 109 61 109 115 0 52 -33 89 -85 95 -31 4 -58 -3 -119 -30z"/>
<path d="M2430 3481 c-78 -25 -96 -36 -110 -70 -17 -43 -5 -95 28 -122 33 -26
88 -23 175 10 92 36 115 105 53 167 -39 39 -63 42 -146 15z"/>
<path d="M2073 3009 c-344 -33 -656 -311 -740 -657 -22 -91 -21 -267 1 -352
65 -245 258 -431 503 -486 103 -23 279 -15 378 16 282 89 507 317 585 590 31
108 37 265 16 366 -43 197 -175 369 -346 453 -133 64 -248 85 -397 70z m230
-134 c126 -33 250 -121 318 -226 197 -308 49 -760 -313 -949 -257 -135 -544
-98 -722 90 -104 110 -150 230 -149 390 1 110 22 192 80 310 39 81 60 109 137
185 102 101 190 154 316 192 91 27 246 31 333 8z"/>
<path d="M1942 2306 c-41 -42 -72 -83 -72 -94 0 -22 44 -62 68 -62 9 0 48 33
89 73 78 78 90 109 55 140 -36 33 -64 21 -140 -57z"/>
<path d="M2368 2202 c-74 -74 -87 -112 -50 -145 33 -30 60 -20 133 51 75 73
88 112 51 145 -34 31 -62 21 -134 -51z"/>
<path d="M1942 1967 c-39 -40 -72 -79 -72 -88 0 -30 30 -59 62 -59 25 0 45 13
100 68 72 72 84 104 52 136 -33 33 -66 20 -142 -57z"/>
<path d="M675 4865 c-51 -50 -16 -125 57 -125 50 0 73 31 69 92 -2 27 -42 58
-73 58 -17 0 -39 -10 -53 -25z"/>
<path d="M342 4477 c-6 -7 -29 -64 -52 -127 -22 -63 -44 -120 -48 -127 -4 -7
-57 -34 -117 -61 -165 -73 -166 -91 -4 -163 57 -26 109 -51 115 -57 6 -5 30
-64 53 -131 67 -187 82 -187 150 4 l46 128 113 51 c171 77 171 94 1 171 l-114
51 -45 125 c-25 68 -49 130 -53 137 -11 16 -32 15 -45 -1z"/>
</g>
</svg>
