<?xml version="1.0" standalone="no"?>
<!DOCTYPE svg PUBLIC "-//W3C//DTD SVG 20010904//EN"
 "http://www.w3.org/TR/2001/REC-SVG-20010904/DTD/svg10.dtd">
<svg version="1.0" xmlns="http://www.w3.org/2000/svg"
 width="880.000000pt" height="920.000000pt" viewBox="0 0 880.000000 920.000000"
 preserveAspectRatio="xMidYMid meet">

<g transform="translate(0.000000,920.000000) scale(0.100000,-0.100000)"
fill="#000000" stroke="none">
<path d="M4170 8794 c-19 -2 -91 -9 -159 -14 -521 -46 -1076 -218 -1549 -481
-323 -179 -618 -403 -887 -673 -249 -249 -437 -489 -612 -781 -465 -774 -651
-1707 -522 -2610 102 -717 387 -1371 845 -1945 139 -173 431 -466 604 -604
618 -493 1321 -781 2120 -868 152 -16 621 -16 780 0 790 82 1490 369 2120 868
170 135 464 429 601 601 498 625 783 1319 871 2123 7 64 12 237 12 390 0 280
-8 403 -45 635 -108 681 -397 1328 -835 1875 -140 175 -433 467 -604 604 -736
586 -1615 893 -2534 884 -94 0 -187 -3 -206 -4z m-15 -2114 c1026 -57 1986
-299 2860 -724 151 -73 176 -89 222 -139 110 -121 126 -275 44 -435 -30 -58
-118 -145 -181 -178 -48 -25 -66 -29 -140 -29 l-85 0 -209 98 c-768 360 -1531
560 -2396 629 -237 18 -796 16 -1043 -5 -373 -32 -672 -79 -1012 -159 -101
-23 -146 -29 -201 -26 -168 11 -303 133 -335 303 -29 157 66 356 202 426 114
57 753 174 1174 214 357 34 766 43 1100 25z m-50 -1600 c871 -53 1691 -271
2453 -654 153 -77 219 -161 230 -291 6 -82 -15 -150 -78 -253 -63 -101 -135
-174 -193 -197 -65 -25 -126 -9 -305 80 -599 296 -1182 462 -1902 542 -227 25
-840 25 -1075 0 -297 -32 -557 -78 -820 -144 -116 -29 -153 -34 -215 -31 -126
7 -214 68 -269 188 -49 108 -22 307 58 424 70 101 103 119 327 172 598 141
1216 198 1789 164z m-56 -1500 c524 -31 1040 -144 1531 -337 204 -79 555 -251
594 -289 88 -89 132 -312 90 -455 -34 -115 -166 -201 -283 -185 -29 4 -127 45
-261 111 -302 146 -507 226 -780 301 -335 93 -630 138 -993 153 -474 20 -923
-33 -1387 -164 -69 -19 -141 -35 -161 -35 -103 0 -208 67 -250 162 -58 133 -1
391 110 491 32 28 63 40 213 81 532 142 1045 196 1577 166z"/>
</g>
</svg>
